<svg width="774" height="305" viewBox="0 0 774 305" fill="none" xmlns="http://www.w3.org/2000/svg">
<path d="M8.72247 156.282L19.5 156.282L19.5 157.7L11.4636 157.7L19.5 161.282L19.5 162.279L11.448 165.876L19.5 165.876L19.5 167.293L8.72247 167.293L8.72247 165.767L17.6311 161.78L8.72247 157.793L8.72247 156.282ZM8.64459 146.278L15.4039 149.814L19.5 149.814L19.5 151.231L15.4039 151.231L8.6446 154.782L8.64459 153.209L14.1424 150.53L8.64459 147.851L8.64459 146.278ZM19.5 139.068L15.0613 141.653L15.0613 143.366L19.5 143.366L19.5 144.784L8.64459 144.784L8.64459 141.279C8.64459 140.459 8.78476 139.769 9.06511 139.208C9.34545 138.637 9.72442 138.211 10.202 137.931C10.6797 137.65 11.2248 137.51 11.8374 137.51C12.5849 137.51 13.2443 137.728 13.8153 138.164C14.3864 138.59 14.7654 139.234 14.9523 140.096L19.5 137.37L19.5 139.068ZM13.9243 143.366L13.9243 141.279C13.9243 140.511 13.7374 139.935 13.3637 139.55C12.9795 139.166 12.4707 138.974 11.8374 138.974C11.1936 138.974 10.6952 139.166 10.3422 139.55C9.98919 139.924 9.81268 140.501 9.81268 141.279L9.81268 143.366L13.9243 143.366Z" fill="#979699"/>
<line x1="94.0957" y1="11.2128" x2="771.5" y2="11.2128" stroke="#F2EDEE" stroke-width="1.29787"/>
<line x1="94.0957" y1="52.7447" x2="771.5" y2="52.7447" stroke="#F2EDEE" stroke-width="1.29787"/>
<line x1="94.0957" y1="94.2766" x2="771.5" y2="94.2766" stroke="#F2EDEE" stroke-width="1.29787"/>
<line x1="94.0957" y1="135.808" x2="771.5" y2="135.808" stroke="#F2EDEE" stroke-width="1.29787"/>
<line x1="94.0957" y1="177.34" x2="771.5" y2="177.34" stroke="#F2EDEE" stroke-width="1.29787"/>
<line x1="94.0957" y1="218.872" x2="771.5" y2="218.872" stroke="#F2EDEE" stroke-width="1.29787"/>
<line x1="94.0957" y1="260.404" x2="771.5" y2="260.404" stroke="#F2EDEE" stroke-width="1.29787"/>
<path d="M115.262 295.751V295.315H116.352V295.751C116.352 296.415 116.529 296.95 116.882 297.355C117.235 297.75 117.749 297.947 118.424 297.947C119.13 297.947 119.649 297.744 119.981 297.34C120.324 296.935 120.495 296.4 120.495 295.735V287.668H121.616V295.766C121.616 296.431 121.481 297.007 121.211 297.495C120.941 297.983 120.562 298.357 120.074 298.617C119.597 298.876 119.047 299.006 118.424 299.006C117.759 299.006 117.188 298.871 116.71 298.601C116.233 298.331 115.869 297.952 115.62 297.464C115.381 296.966 115.262 296.395 115.262 295.751ZM126.176 299.006C125.376 299.006 124.748 298.798 124.291 298.383C123.845 297.968 123.622 297.433 123.622 296.779C123.622 296.083 123.871 295.528 124.369 295.112C124.868 294.697 125.558 294.453 126.441 294.38L128.933 294.178V293.929C128.933 293.43 128.844 293.041 128.668 292.761C128.491 292.47 128.253 292.267 127.951 292.153C127.65 292.039 127.313 291.982 126.939 291.982C126.275 291.982 125.761 292.122 125.397 292.402C125.034 292.683 124.852 293.077 124.852 293.586H123.871C123.871 293.077 124.001 292.636 124.26 292.262C124.52 291.888 124.883 291.598 125.351 291.39C125.818 291.182 126.358 291.079 126.97 291.079C127.562 291.079 128.081 291.182 128.528 291.39C128.974 291.587 129.327 291.899 129.587 292.325C129.857 292.74 129.992 293.28 129.992 293.944V298.819H129.088L128.948 297.495C128.72 297.973 128.356 298.347 127.858 298.617C127.37 298.876 126.809 299.006 126.176 299.006ZM126.425 298.134C127.225 298.134 127.842 297.879 128.279 297.371C128.715 296.862 128.933 296.203 128.933 295.393V294.988L126.705 295.159C125.999 295.221 125.491 295.398 125.179 295.689C124.868 295.979 124.712 296.332 124.712 296.748C124.712 297.205 124.868 297.552 125.179 297.791C125.491 298.02 125.906 298.134 126.425 298.134ZM133.223 298.819H132.148V291.281H133.083L133.238 292.589C133.488 292.112 133.841 291.743 134.297 291.484C134.765 291.214 135.273 291.079 135.824 291.079C136.862 291.079 137.61 291.364 138.066 291.935C138.523 292.506 138.752 293.264 138.752 294.209V298.819H137.677V294.443C137.677 293.56 137.49 292.942 137.116 292.589C136.753 292.236 136.26 292.06 135.637 292.06C134.869 292.06 134.271 292.319 133.846 292.838C133.43 293.347 133.223 294.027 133.223 294.879V298.819Z" fill="#979699"/>
<path d="M173.894 287.668V298.819H172.772V287.668H173.894ZM179.345 288.696H172.819V287.668H179.345V288.696ZM178.457 293.913H172.819V292.901H178.457V293.913ZM183.564 299.006C182.837 299.006 182.193 298.84 181.632 298.508C181.082 298.175 180.651 297.713 180.34 297.121C180.028 296.53 179.872 295.839 179.872 295.05C179.872 294.271 180.023 293.586 180.324 292.994C180.636 292.392 181.061 291.925 181.601 291.593C182.141 291.25 182.769 291.079 183.486 291.079C184.171 291.079 184.768 291.229 185.277 291.53C185.796 291.831 186.196 292.252 186.476 292.792C186.767 293.321 186.912 293.944 186.912 294.661V295.19H180.464L180.495 294.412H185.837C185.837 293.685 185.619 293.103 185.183 292.667C184.758 292.221 184.192 291.997 183.486 291.997C182.967 291.997 182.51 292.117 182.115 292.356C181.731 292.594 181.435 292.937 181.227 293.384C181.02 293.82 180.916 294.339 180.916 294.941C180.916 295.938 181.144 296.711 181.601 297.262C182.068 297.812 182.728 298.087 183.579 298.087C184.192 298.087 184.695 297.957 185.09 297.698C185.484 297.438 185.749 297.059 185.884 296.561H186.912C186.715 297.35 186.331 297.957 185.76 298.383C185.189 298.798 184.457 299.006 183.564 299.006ZM189.565 298.819H188.63V287.465H189.705V292.745C189.964 292.184 190.338 291.769 190.826 291.499C191.325 291.219 191.896 291.079 192.539 291.079C193.277 291.079 193.9 291.255 194.408 291.608C194.928 291.951 195.322 292.423 195.592 293.025C195.872 293.628 196.013 294.308 196.013 295.066C196.013 295.813 195.872 296.488 195.592 297.09C195.312 297.682 194.912 298.149 194.393 298.492C193.874 298.835 193.246 299.006 192.508 299.006C191.885 299.006 191.325 298.866 190.826 298.585C190.328 298.295 189.944 297.859 189.674 297.277L189.565 298.819ZM189.72 295.034C189.72 295.616 189.824 296.135 190.032 296.592C190.24 297.038 190.536 297.391 190.92 297.651C191.314 297.9 191.787 298.025 192.337 298.025C192.887 298.025 193.355 297.9 193.739 297.651C194.123 297.391 194.414 297.038 194.611 296.592C194.819 296.135 194.922 295.616 194.922 295.034C194.922 294.453 194.819 293.939 194.611 293.493C194.414 293.046 194.123 292.693 193.739 292.434C193.355 292.174 192.887 292.044 192.337 292.044C191.787 292.044 191.314 292.174 190.92 292.434C190.536 292.693 190.24 293.046 190.032 293.493C189.824 293.939 189.72 294.453 189.72 295.034Z" fill="#979699"/>
<path d="M230.834 298.819H229.729V287.668H230.834L234.899 297.495L238.964 287.668H240.086V298.819H238.98V293.524C238.98 293.036 238.98 292.61 238.98 292.247C238.99 291.883 238.996 291.567 238.996 291.297C239.006 291.027 239.016 290.788 239.027 290.58C239.037 290.362 239.053 290.154 239.073 289.957L235.445 298.819H234.37L230.741 290.004C230.772 290.212 230.793 290.611 230.803 291.203C230.824 291.785 230.834 292.501 230.834 293.352V298.819ZM244.725 299.006C243.925 299.006 243.297 298.798 242.84 298.383C242.394 297.968 242.171 297.433 242.171 296.779C242.171 296.083 242.42 295.528 242.918 295.112C243.417 294.697 244.107 294.453 244.99 294.38L247.482 294.178V293.929C247.482 293.43 247.393 293.041 247.217 292.761C247.04 292.47 246.801 292.267 246.5 292.153C246.199 292.039 245.862 291.982 245.488 291.982C244.823 291.982 244.31 292.122 243.946 292.402C243.583 292.683 243.401 293.077 243.401 293.586H242.42C242.42 293.077 242.55 292.636 242.809 292.262C243.069 291.888 243.432 291.598 243.899 291.39C244.367 291.182 244.907 291.079 245.519 291.079C246.111 291.079 246.63 291.182 247.077 291.39C247.523 291.587 247.876 291.899 248.136 292.325C248.406 292.74 248.541 293.28 248.541 293.944V298.819H247.637L247.497 297.495C247.269 297.973 246.905 298.347 246.407 298.617C245.919 298.876 245.358 299.006 244.725 299.006ZM244.974 298.134C245.774 298.134 246.391 297.879 246.827 297.371C247.263 296.862 247.482 296.203 247.482 295.393V294.988L245.254 295.159C244.548 295.221 244.04 295.398 243.728 295.689C243.417 295.979 243.261 296.332 243.261 296.748C243.261 297.205 243.417 297.552 243.728 297.791C244.04 298.02 244.455 298.134 244.974 298.134ZM254.637 291.188V292.153H254.046C253.35 292.153 252.794 292.366 252.379 292.792C251.974 293.217 251.772 293.794 251.772 294.521V298.819H250.697V291.281H251.709L251.803 292.761H251.694C251.798 292.273 252.052 291.878 252.457 291.577C252.862 291.265 253.355 291.11 253.937 291.11C254.051 291.11 254.165 291.115 254.279 291.125C254.393 291.136 254.513 291.156 254.637 291.188Z" fill="#979699"/>
<path d="M287.912 298.819H286.775L290.872 287.668H292.258L296.4 298.819H295.232L294.142 295.86H289.003L287.912 298.819ZM291.417 289.241L289.345 294.879H293.784L291.697 289.241C291.676 289.158 291.65 289.075 291.619 288.992C291.588 288.909 291.567 288.841 291.557 288.789C291.546 288.841 291.526 288.914 291.494 289.007C291.474 289.09 291.448 289.168 291.417 289.241ZM297.717 302.105V291.281H298.651L298.76 292.807C299.03 292.226 299.415 291.795 299.913 291.515C300.422 291.224 300.988 291.079 301.611 291.079C302.337 291.079 302.96 291.25 303.48 291.593C303.999 291.935 304.398 292.402 304.679 292.994C304.959 293.586 305.099 294.261 305.099 295.019C305.099 295.777 304.959 296.457 304.679 297.059C304.409 297.661 304.014 298.139 303.495 298.492C302.986 298.835 302.358 299.006 301.611 299.006C300.967 299.006 300.401 298.871 299.913 298.601C299.425 298.321 299.051 297.911 298.792 297.371V302.105H297.717ZM298.807 295.05C298.807 295.621 298.911 296.135 299.119 296.592C299.326 297.038 299.622 297.391 300.006 297.651C300.401 297.911 300.873 298.04 301.424 298.04C301.974 298.04 302.441 297.911 302.825 297.651C303.21 297.391 303.5 297.038 303.698 296.592C303.905 296.135 304.009 295.621 304.009 295.05C304.009 294.469 303.905 293.955 303.698 293.508C303.5 293.051 303.21 292.698 302.825 292.449C302.441 292.19 301.974 292.06 301.424 292.06C300.873 292.06 300.401 292.19 300.006 292.449C299.622 292.698 299.326 293.051 299.119 293.508C298.911 293.955 298.807 294.469 298.807 295.05ZM310.753 291.188V292.153H310.161C309.465 292.153 308.91 292.366 308.494 292.792C308.089 293.217 307.887 293.794 307.887 294.521V298.819H306.812V291.281H307.825L307.918 292.761H307.809C307.913 292.273 308.167 291.878 308.572 291.577C308.977 291.265 309.47 291.11 310.052 291.11C310.166 291.11 310.28 291.115 310.394 291.125C310.509 291.136 310.628 291.156 310.753 291.188Z" fill="#979699"/>
<path d="M345.235 298.819H344.129V287.668H345.235L349.3 297.495L353.365 287.668H354.486V298.819H353.38V293.524C353.38 293.036 353.38 292.61 353.38 292.247C353.391 291.883 353.396 291.567 353.396 291.297C353.406 291.027 353.417 290.788 353.427 290.58C353.438 290.362 353.453 290.154 353.474 289.957L349.845 298.819H348.77L345.142 290.004C345.173 290.212 345.193 290.611 345.204 291.203C345.225 291.785 345.235 292.501 345.235 293.352V298.819ZM359.125 299.006C358.326 299.006 357.698 298.798 357.241 298.383C356.794 297.968 356.571 297.433 356.571 296.779C356.571 296.083 356.82 295.528 357.319 295.112C357.817 294.697 358.508 294.453 359.39 294.38L361.882 294.178V293.929C361.882 293.43 361.794 293.041 361.617 292.761C361.441 292.47 361.202 292.267 360.901 292.153C360.6 292.039 360.262 291.982 359.888 291.982C359.224 291.982 358.71 292.122 358.347 292.402C357.983 292.683 357.802 293.077 357.802 293.586H356.82C356.82 293.077 356.95 292.636 357.21 292.262C357.469 291.888 357.833 291.598 358.3 291.39C358.767 291.182 359.307 291.079 359.92 291.079C360.511 291.079 361.031 291.182 361.477 291.39C361.924 291.587 362.277 291.899 362.536 292.325C362.806 292.74 362.941 293.28 362.941 293.944V298.819H362.038L361.898 297.495C361.669 297.973 361.306 298.347 360.807 298.617C360.319 298.876 359.759 299.006 359.125 299.006ZM359.375 298.134C360.174 298.134 360.792 297.879 361.228 297.371C361.664 296.862 361.882 296.203 361.882 295.393V294.988L359.655 295.159C358.949 295.221 358.44 295.398 358.129 295.689C357.817 295.979 357.661 296.332 357.661 296.748C357.661 297.205 357.817 297.552 358.129 297.791C358.44 298.02 358.855 298.134 359.375 298.134ZM365.086 291.281L367.921 298.975L367.126 299.598L363.949 291.281H365.086ZM364.167 302.105V301.218H364.993C365.211 301.218 365.423 301.197 365.631 301.155C365.849 301.124 366.046 301.036 366.223 300.89C366.41 300.745 366.56 300.501 366.675 300.158L369.899 291.281H371.004L367.547 300.548C367.329 301.14 367.033 301.565 366.659 301.825C366.296 302.085 365.844 302.214 365.304 302.214C365.086 302.214 364.884 302.204 364.697 302.183C364.51 302.173 364.333 302.147 364.167 302.105Z" fill="#979699"/>
<path d="M403.271 295.751V295.315H404.361V295.751C404.361 296.415 404.538 296.95 404.891 297.355C405.244 297.75 405.758 297.947 406.433 297.947C407.139 297.947 407.658 297.744 407.99 297.34C408.333 296.935 408.504 296.4 408.504 295.735V287.668H409.626V295.766C409.626 296.431 409.491 297.007 409.221 297.495C408.951 297.983 408.572 298.357 408.084 298.617C407.606 298.876 407.056 299.006 406.433 299.006C405.768 299.006 405.197 298.871 404.72 298.601C404.242 298.331 403.879 297.952 403.629 297.464C403.391 296.966 403.271 296.395 403.271 295.751ZM417.316 291.281H418.39V298.819H417.456L417.316 297.542C417.108 297.978 416.76 298.331 416.272 298.601C415.795 298.871 415.26 299.006 414.668 299.006C413.786 299.006 413.106 298.726 412.628 298.165C412.161 297.604 411.927 296.867 411.927 295.953V291.265H413.017V295.611C413.017 296.504 413.199 297.132 413.562 297.495C413.936 297.859 414.419 298.04 415.011 298.04C415.738 298.04 416.303 297.807 416.708 297.34C417.113 296.862 417.316 296.177 417.316 295.284V291.281ZM421.704 298.819H420.629V291.281H421.563L421.719 292.589C421.968 292.112 422.321 291.743 422.778 291.484C423.246 291.214 423.754 291.079 424.305 291.079C425.343 291.079 426.09 291.364 426.547 291.935C427.004 292.506 427.233 293.264 427.233 294.209V298.819H426.158V294.443C426.158 293.56 425.971 292.942 425.597 292.589C425.234 292.236 424.741 292.06 424.118 292.06C423.349 292.06 422.752 292.319 422.327 292.838C421.911 293.347 421.704 294.027 421.704 294.879V298.819Z" fill="#979699"/>
<path d="M460.089 295.751V295.315H461.179V295.751C461.179 296.415 461.356 296.95 461.709 297.355C462.062 297.75 462.576 297.947 463.251 297.947C463.957 297.947 464.476 297.744 464.808 297.34C465.151 296.935 465.322 296.4 465.322 295.735V287.668H466.443V295.766C466.443 296.431 466.308 297.007 466.038 297.495C465.768 297.983 465.389 298.357 464.901 298.617C464.424 298.876 463.874 299.006 463.251 299.006C462.586 299.006 462.015 298.871 461.537 298.601C461.06 298.331 460.696 297.952 460.447 297.464C460.208 296.966 460.089 296.395 460.089 295.751ZM474.133 291.281H475.208V298.819H474.274L474.133 297.542C473.926 297.978 473.578 298.331 473.09 298.601C472.612 298.871 472.078 299.006 471.486 299.006C470.603 299.006 469.923 298.726 469.446 298.165C468.978 297.604 468.745 296.867 468.745 295.953V291.265H469.835V295.611C469.835 296.504 470.017 297.132 470.38 297.495C470.754 297.859 471.237 298.04 471.828 298.04C472.555 298.04 473.121 297.807 473.526 297.34C473.931 296.862 474.133 296.177 474.133 295.284V291.281ZM478.568 298.819H477.493V287.465H478.568V298.819Z" fill="#979699"/>
<path d="M512.464 298.819H511.327L515.423 287.668H516.81L520.952 298.819H519.784L518.694 295.86H513.555L512.464 298.819ZM515.969 289.241L513.897 294.879H518.336L516.249 289.241C516.228 289.158 516.202 289.075 516.171 288.992C516.14 288.909 516.119 288.841 516.109 288.789C516.098 288.841 516.078 288.914 516.046 289.007C516.026 289.09 516 289.168 515.969 289.241ZM527.412 291.281H528.487V298.819H527.552L527.412 297.542C527.204 297.978 526.857 298.331 526.369 298.601C525.891 298.871 525.356 299.006 524.764 299.006C523.882 299.006 523.202 298.726 522.724 298.165C522.257 297.604 522.023 296.867 522.023 295.953V291.265H523.114V295.611C523.114 296.504 523.295 297.132 523.659 297.495C524.032 297.859 524.515 298.04 525.107 298.04C525.834 298.04 526.4 297.807 526.805 297.34C527.21 296.862 527.412 296.177 527.412 295.284V291.281ZM530.211 294.832C530.211 294.147 530.352 293.524 530.632 292.963C530.912 292.392 531.317 291.935 531.847 291.593C532.376 291.25 533.01 291.079 533.747 291.079C534.463 291.079 535.076 291.255 535.585 291.608C536.093 291.961 536.457 292.47 536.675 293.134L536.504 293.352L536.644 291.281H537.578V298.585C537.578 299.333 537.428 299.982 537.126 300.532C536.825 301.093 536.4 301.524 535.849 301.825C535.309 302.136 534.671 302.292 533.934 302.292C532.968 302.292 532.169 302.033 531.535 301.513C530.902 300.994 530.507 300.283 530.352 299.38H531.426C531.54 299.992 531.816 300.465 532.252 300.797C532.698 301.14 533.264 301.311 533.949 301.311C534.728 301.311 535.351 301.072 535.818 300.595C536.285 300.117 536.519 299.484 536.519 298.694V296.327L536.675 296.53C536.457 297.163 536.078 297.667 535.538 298.04C535.008 298.404 534.385 298.585 533.669 298.585C532.953 298.585 532.335 298.414 531.816 298.072C531.296 297.729 530.897 297.277 530.616 296.717C530.346 296.145 530.211 295.517 530.211 294.832ZM531.286 294.816C531.286 295.336 531.385 295.808 531.582 296.234C531.79 296.659 532.08 296.997 532.454 297.246C532.838 297.495 533.295 297.62 533.825 297.62C534.365 297.62 534.827 297.5 535.211 297.262C535.605 297.012 535.906 296.68 536.114 296.265C536.322 295.839 536.426 295.356 536.426 294.816C536.426 294.277 536.322 293.799 536.114 293.384C535.917 292.968 535.626 292.641 535.242 292.402C534.868 292.153 534.401 292.029 533.84 292.029C533.3 292.029 532.838 292.158 532.454 292.418C532.08 292.667 531.79 293.005 531.582 293.43C531.385 293.846 531.286 294.308 531.286 294.816Z" fill="#979699"/>
<path d="M571.188 290.565C571.188 289.942 571.344 289.402 571.656 288.945C571.967 288.478 572.403 288.114 572.964 287.855C573.524 287.595 574.179 287.465 574.926 287.465C575.601 287.465 576.188 287.585 576.686 287.824C577.195 288.062 577.6 288.405 577.901 288.851C578.202 289.298 578.379 289.833 578.43 290.456H577.294C577.231 289.833 576.992 289.35 576.577 289.007C576.162 288.654 575.606 288.478 574.911 288.478C574.132 288.478 573.504 288.665 573.026 289.038C572.548 289.412 572.31 289.916 572.31 290.549C572.31 291.037 572.455 291.442 572.746 291.764C573.036 292.075 573.473 292.304 574.054 292.449L575.97 292.916C576.842 293.124 577.501 293.477 577.948 293.975C578.394 294.463 578.617 295.086 578.617 295.844C578.617 296.478 578.462 297.033 578.15 297.511C577.839 297.988 577.397 298.357 576.826 298.617C576.255 298.876 575.586 299.006 574.817 299.006C574.101 299.006 573.462 298.887 572.902 298.648C572.351 298.409 571.915 298.066 571.593 297.62C571.282 297.173 571.1 296.649 571.048 296.047H572.201C572.232 296.639 572.486 297.111 572.964 297.464C573.441 297.807 574.059 297.978 574.817 297.978C575.637 297.978 576.286 297.791 576.764 297.417C577.252 297.044 577.496 296.54 577.496 295.907C577.496 295.398 577.351 294.988 577.06 294.676C576.78 294.354 576.338 294.121 575.736 293.975L573.852 293.508C572.979 293.301 572.315 292.953 571.858 292.465C571.412 291.966 571.188 291.333 571.188 290.565ZM583.562 299.006C582.835 299.006 582.191 298.84 581.631 298.508C581.08 298.175 580.649 297.713 580.338 297.121C580.026 296.53 579.871 295.839 579.871 295.05C579.871 294.271 580.021 293.586 580.322 292.994C580.634 292.392 581.06 291.925 581.599 291.593C582.139 291.25 582.768 291.079 583.484 291.079C584.169 291.079 584.766 291.229 585.275 291.53C585.794 291.831 586.194 292.252 586.474 292.792C586.765 293.321 586.91 293.944 586.91 294.661V295.19H580.463L580.494 294.412H585.836C585.836 293.685 585.618 293.103 585.182 292.667C584.756 292.221 584.19 291.997 583.484 291.997C582.965 291.997 582.508 292.117 582.113 292.356C581.729 292.594 581.433 292.937 581.226 293.384C581.018 293.82 580.914 294.339 580.914 294.941C580.914 295.938 581.143 296.711 581.599 297.262C582.067 297.812 582.726 298.087 583.577 298.087C584.19 298.087 584.694 297.957 585.088 297.698C585.483 297.438 585.747 297.059 585.882 296.561H586.91C586.713 297.35 586.329 297.957 585.758 298.383C585.187 298.798 584.455 299.006 583.562 299.006ZM588.629 302.105V291.281H589.563L589.672 292.807C589.942 292.226 590.326 291.795 590.825 291.515C591.333 291.224 591.899 291.079 592.522 291.079C593.249 291.079 593.872 291.25 594.391 291.593C594.91 291.935 595.31 292.402 595.59 292.994C595.871 293.586 596.011 294.261 596.011 295.019C596.011 295.777 595.871 296.457 595.59 297.059C595.32 297.661 594.926 298.139 594.407 298.492C593.898 298.835 593.27 299.006 592.522 299.006C591.878 299.006 591.313 298.871 590.825 298.601C590.337 298.321 589.963 297.911 589.703 297.371V302.105H588.629ZM589.719 295.05C589.719 295.621 589.823 296.135 590.03 296.592C590.238 297.038 590.534 297.391 590.918 297.651C591.313 297.911 591.785 298.04 592.335 298.04C592.886 298.04 593.353 297.911 593.737 297.651C594.121 297.391 594.412 297.038 594.609 296.592C594.817 296.135 594.921 295.621 594.921 295.05C594.921 294.469 594.817 293.955 594.609 293.508C594.412 293.051 594.121 292.698 593.737 292.449C593.353 292.19 592.886 292.06 592.335 292.06C591.785 292.06 591.313 292.19 590.918 292.449C590.534 292.698 590.238 293.051 590.03 293.508C589.823 293.955 589.719 294.469 589.719 295.05Z" fill="#979699"/>
<path d="M639.644 293.243C639.644 294.375 639.415 295.372 638.958 296.234C638.512 297.096 637.889 297.776 637.089 298.274C636.29 298.762 635.371 299.006 634.333 299.006C633.294 299.006 632.37 298.762 631.56 298.274C630.761 297.776 630.138 297.096 629.691 296.234C629.245 295.372 629.022 294.375 629.022 293.243C629.022 292.112 629.245 291.115 629.691 290.253C630.148 289.381 630.777 288.701 631.576 288.213C632.375 287.714 633.294 287.465 634.333 287.465C635.381 287.465 636.3 287.714 637.089 288.213C637.889 288.701 638.512 289.381 638.958 290.253C639.415 291.115 639.644 292.112 639.644 293.243ZM638.491 293.243C638.491 292.309 638.315 291.494 637.962 290.798C637.609 290.092 637.121 289.542 636.498 289.147C635.885 288.753 635.163 288.556 634.333 288.556C633.512 288.556 632.791 288.753 632.168 289.147C631.545 289.542 631.057 290.092 630.704 290.798C630.361 291.494 630.19 292.309 630.19 293.243C630.19 294.168 630.361 294.983 630.704 295.689C631.057 296.395 631.545 296.945 632.168 297.34C632.791 297.734 633.512 297.931 634.333 297.931C635.163 297.931 635.885 297.734 636.498 297.34C637.121 296.945 637.609 296.395 637.962 295.689C638.315 294.983 638.491 294.168 638.491 293.243ZM640.914 295.066C640.914 294.277 641.064 293.586 641.365 292.994C641.677 292.392 642.103 291.925 642.643 291.593C643.193 291.25 643.831 291.079 644.558 291.079C645.43 291.079 646.162 291.312 646.754 291.779C647.356 292.247 647.73 292.87 647.876 293.648H646.801C646.656 293.129 646.38 292.729 645.975 292.449C645.571 292.169 645.103 292.029 644.574 292.029C644.075 292.029 643.629 292.153 643.234 292.402C642.84 292.652 642.528 293.005 642.3 293.461C642.082 293.908 641.973 294.437 641.973 295.05C641.973 295.652 642.077 296.177 642.284 296.623C642.492 297.07 642.783 297.417 643.156 297.667C643.541 297.916 643.987 298.04 644.496 298.04C645.067 298.04 645.56 297.9 645.975 297.62C646.391 297.329 646.671 296.94 646.816 296.452H647.907C647.792 296.961 647.574 297.407 647.253 297.791C646.931 298.175 646.531 298.476 646.053 298.694C645.586 298.902 645.067 299.006 644.496 299.006C643.779 299.006 643.151 298.845 642.611 298.523C642.082 298.191 641.667 297.729 641.365 297.137C641.064 296.545 640.914 295.855 640.914 295.066ZM648.694 291.281H652.774V292.184H648.694V291.281ZM651.263 298.819H650.204V288.898H651.263V298.819Z" fill="#979699"/>
<path d="M687.23 298.819H686.108V287.668H687.245L693.646 297.355H693.382V287.668H694.487V298.819H693.382L686.965 289.132H687.23V298.819ZM696.448 295.05C696.448 294.271 696.614 293.586 696.946 292.994C697.279 292.402 697.736 291.935 698.317 291.593C698.898 291.25 699.553 291.079 700.279 291.079C701.017 291.079 701.671 291.25 702.242 291.593C702.823 291.935 703.28 292.402 703.612 292.994C703.945 293.586 704.111 294.271 704.111 295.05C704.111 295.808 703.945 296.488 703.612 297.09C703.28 297.682 702.823 298.149 702.242 298.492C701.671 298.835 701.017 299.006 700.279 299.006C699.553 299.006 698.898 298.835 698.317 298.492C697.736 298.149 697.279 297.682 696.946 297.09C696.614 296.488 696.448 295.808 696.448 295.05ZM697.538 295.034C697.538 295.626 697.652 296.151 697.881 296.608C698.12 297.054 698.442 297.407 698.847 297.667C699.262 297.916 699.739 298.04 700.279 298.04C700.819 298.04 701.292 297.916 701.697 297.667C702.112 297.407 702.434 297.054 702.662 296.608C702.901 296.151 703.02 295.626 703.02 295.034C703.02 294.453 702.901 293.939 702.662 293.493C702.434 293.046 702.112 292.693 701.697 292.434C701.292 292.174 700.819 292.044 700.279 292.044C699.739 292.044 699.262 292.174 698.847 292.434C698.442 292.693 698.12 293.046 697.881 293.493C697.652 293.939 697.538 294.453 697.538 295.034ZM707.597 298.819L704.514 291.281H705.666L707.613 296.14C707.727 296.421 707.826 296.691 707.909 296.95C708.002 297.199 708.085 297.449 708.158 297.698C708.231 297.438 708.314 297.184 708.407 296.935C708.501 296.675 708.605 296.41 708.719 296.14L710.697 291.281H711.803L708.672 298.819H707.597Z" fill="#979699"/>
<path d="M748.592 298.819H745.197V287.668H748.561C749.682 287.668 750.664 287.901 751.505 288.369C752.346 288.836 753 289.49 753.467 290.331C753.934 291.162 754.168 292.132 754.168 293.243C754.168 294.354 753.934 295.33 753.467 296.171C753.01 297.002 752.361 297.651 751.52 298.118C750.689 298.585 749.713 298.819 748.592 298.819ZM746.318 288.197V298.29L745.804 297.791H748.545C749.459 297.791 750.248 297.604 750.913 297.23C751.577 296.857 752.091 296.332 752.455 295.657C752.828 294.972 753.015 294.168 753.015 293.243C753.015 292.319 752.828 291.515 752.455 290.829C752.091 290.144 751.572 289.62 750.897 289.256C750.233 288.883 749.438 288.696 748.514 288.696H745.804L746.318 288.197ZM759.121 299.006C758.395 299.006 757.751 298.84 757.19 298.508C756.64 298.175 756.209 297.713 755.897 297.121C755.586 296.53 755.43 295.839 755.43 295.05C755.43 294.271 755.581 293.586 755.882 292.994C756.193 292.392 756.619 291.925 757.159 291.593C757.699 291.25 758.327 291.079 759.043 291.079C759.729 291.079 760.326 291.229 760.835 291.53C761.354 291.831 761.753 292.252 762.034 292.792C762.324 293.321 762.47 293.944 762.47 294.661V295.19H756.022L756.053 294.412H761.395C761.395 293.685 761.177 293.103 760.741 292.667C760.315 292.221 759.749 291.997 759.043 291.997C758.524 291.997 758.067 292.117 757.673 292.356C757.289 292.594 756.993 292.937 756.785 293.384C756.577 293.82 756.474 294.339 756.474 294.941C756.474 295.938 756.702 296.711 757.159 297.262C757.626 297.812 758.285 298.087 759.137 298.087C759.749 298.087 760.253 297.957 760.648 297.698C761.042 297.438 761.307 297.059 761.442 296.561H762.47C762.273 297.35 761.888 297.957 761.317 298.383C760.746 298.798 760.014 299.006 759.121 299.006ZM763.658 295.066C763.658 294.277 763.809 293.586 764.11 292.994C764.422 292.392 764.847 291.925 765.387 291.593C765.938 291.25 766.576 291.079 767.303 291.079C768.175 291.079 768.907 291.312 769.499 291.779C770.101 292.247 770.475 292.87 770.62 293.648H769.546C769.4 293.129 769.125 292.729 768.72 292.449C768.315 292.169 767.848 292.029 767.318 292.029C766.82 292.029 766.374 292.153 765.979 292.402C765.585 292.652 765.273 293.005 765.045 293.461C764.827 293.908 764.718 294.437 764.718 295.05C764.718 295.652 764.821 296.177 765.029 296.623C765.237 297.07 765.527 297.417 765.901 297.667C766.285 297.916 766.732 298.04 767.241 298.04C767.812 298.04 768.305 297.9 768.72 297.62C769.136 297.329 769.416 296.94 769.561 296.452H770.651C770.537 296.961 770.319 297.407 769.997 297.791C769.675 298.175 769.276 298.476 768.798 298.694C768.331 298.902 767.812 299.006 767.241 299.006C766.524 299.006 765.896 298.845 765.356 298.523C764.827 298.191 764.411 297.729 764.11 297.137C763.809 296.545 763.658 295.855 763.658 295.066Z" fill="#979699"/>
<path d="M37.0621 8.75506C37.1348 7.79983 37.5034 7.05225 38.1679 6.51234C38.8324 5.97242 39.6942 5.70246 40.7533 5.70246C41.4593 5.70246 42.0667 5.83225 42.5755 6.09183C43.0946 6.34102 43.484 6.68366 43.7436 7.11974C44.0135 7.55583 44.1485 8.04902 44.1485 8.59932C44.1485 9.24306 43.9616 9.79855 43.5878 10.2658C43.2244 10.733 42.7468 11.0341 42.155 11.1691V11.247C42.8299 11.4131 43.3646 11.7402 43.7591 12.2282C44.1537 12.7162 44.351 13.3547 44.351 14.1438C44.351 14.7357 44.216 15.2704 43.946 15.748C43.6761 16.2152 43.2711 16.5838 42.7312 16.8538C42.1913 17.1237 41.5424 17.2587 40.7844 17.2587C39.6838 17.2587 38.7805 16.9732 38.0745 16.4021C37.3684 15.8207 36.9739 15.0004 36.8908 13.9414H38.2614C38.334 14.5643 38.5884 15.0731 39.0245 15.4677C39.4606 15.8622 40.042 16.0595 40.7689 16.0595C41.4957 16.0595 42.046 15.8726 42.4197 15.4988C42.8039 15.1146 42.996 14.6214 42.996 14.0192C42.996 13.2405 42.7364 12.6798 42.2173 12.3372C41.6981 11.9945 40.9142 11.8232 39.8655 11.8232H39.5073V10.6396H39.8811C40.8363 10.6292 41.558 10.4734 42.046 10.1723C42.534 9.86085 42.778 9.38323 42.778 8.73948C42.778 8.18919 42.5963 7.74791 42.2329 7.41566C41.8798 7.0834 41.3711 6.91727 40.7066 6.91727C40.0628 6.91727 39.5437 7.0834 39.1491 7.41566C38.7546 7.74791 38.5209 8.19438 38.4483 8.75506H37.0621ZM46.2646 11.4339C46.2646 9.648 46.5553 8.25668 47.1367 7.25991C47.7182 6.25276 48.7357 5.74919 50.1893 5.74919C51.6326 5.74919 52.6449 6.25276 53.2264 7.25991C53.8078 8.25668 54.0985 9.648 54.0985 11.4339C54.0985 13.2509 53.8078 14.663 53.2264 15.6701C52.6449 16.6773 51.6326 17.1808 50.1893 17.1808C48.7357 17.1808 47.7182 16.6773 47.1367 15.6701C46.5553 14.663 46.2646 13.2509 46.2646 11.4339ZM52.6968 11.4339C52.6968 10.5305 52.6345 9.7674 52.5099 9.14442C52.3957 8.51106 52.1517 8.00229 51.7779 7.61812C51.4145 7.23395 50.885 7.04187 50.1893 7.04187C49.4833 7.04187 48.9434 7.23395 48.5696 7.61812C48.2062 8.00229 47.9622 8.51106 47.8376 9.14442C47.7234 9.7674 47.6663 10.5305 47.6663 11.4339C47.6663 12.3683 47.7234 13.1523 47.8376 13.7856C47.9622 14.419 48.2062 14.9277 48.5696 15.3119C48.9434 15.6961 49.4833 15.8882 50.1893 15.8882C50.885 15.8882 51.4145 15.6961 51.7779 15.3119C52.1517 14.9277 52.3957 14.419 52.5099 13.7856C52.6345 13.1523 52.6968 12.3683 52.6968 11.4339ZM56.0442 11.4339C56.0442 9.648 56.335 8.25668 56.9164 7.25991C57.4979 6.25276 58.5154 5.74919 59.969 5.74919C61.4122 5.74919 62.4246 6.25276 63.006 7.25991C63.5875 8.25668 63.8782 9.648 63.8782 11.4339C63.8782 13.2509 63.5875 14.663 63.006 15.6701C62.4246 16.6773 61.4122 17.1808 59.969 17.1808C58.5154 17.1808 57.4979 16.6773 56.9164 15.6701C56.335 14.663 56.0442 13.2509 56.0442 11.4339ZM62.4765 11.4339C62.4765 10.5305 62.4142 9.7674 62.2896 9.14442C62.1754 8.51106 61.9314 8.00229 61.5576 7.61812C61.1942 7.23395 60.6647 7.04187 59.969 7.04187C59.263 7.04187 58.723 7.23395 58.3493 7.61812C57.9859 8.00229 57.7419 8.51106 57.6173 9.14442C57.503 9.7674 57.4459 10.5305 57.4459 11.4339C57.4459 12.3683 57.503 13.1523 57.6173 13.7856C57.7419 14.419 57.9859 14.9277 58.3493 15.3119C58.723 15.6961 59.263 15.8882 59.969 15.8882C60.6647 15.8882 61.1942 15.6961 61.5576 15.3119C61.9314 14.9277 62.1754 14.419 62.2896 13.7856C62.4142 13.1523 62.4765 12.3683 62.4765 11.4339ZM65.8239 11.4339C65.8239 9.648 66.1146 8.25668 66.6961 7.25991C67.2775 6.25276 68.2951 5.74919 69.7487 5.74919C71.1919 5.74919 72.2043 6.25276 72.7857 7.25991C73.3671 8.25668 73.6579 9.648 73.6579 11.4339C73.6579 13.2509 73.3671 14.663 72.7857 15.6701C72.2043 16.6773 71.1919 17.1808 69.7487 17.1808C68.2951 17.1808 67.2775 16.6773 66.6961 15.6701C66.1146 14.663 65.8239 13.2509 65.8239 11.4339ZM72.2562 11.4339C72.2562 10.5305 72.1939 9.7674 72.0693 9.14442C71.9551 8.51106 71.7111 8.00229 71.3373 7.61812C70.9739 7.23395 70.4443 7.04187 69.7487 7.04187C69.0426 7.04187 68.5027 7.23395 68.1289 7.61812C67.7655 8.00229 67.5215 8.51106 67.3969 9.14442C67.2827 9.7674 67.2256 10.5305 67.2256 11.4339C67.2256 12.3683 67.2827 13.1523 67.3969 13.7856C67.5215 14.419 67.7655 14.9277 68.1289 15.3119C68.5027 15.6961 69.0426 15.8882 69.7487 15.8882C70.4443 15.8882 70.9739 15.6961 71.3373 15.3119C71.7111 14.9277 71.9551 14.419 72.0693 13.7856C72.1939 13.1523 72.2562 12.3683 72.2562 11.4339Z" fill="#979699"/>
<path d="M37.0284 57.2141C38.3471 56.1551 39.3802 55.2881 40.1277 54.6132C40.8753 53.9279 41.5035 53.2167 42.0123 52.4795C42.5314 51.7319 42.791 50.9999 42.791 50.2835C42.791 49.6086 42.6249 49.0791 42.2926 48.6949C41.9707 48.3004 41.4464 48.1031 40.7196 48.1031C40.0135 48.1031 39.4632 48.3263 39.0687 48.7728C38.6845 49.2089 38.4769 49.7955 38.4457 50.5327H37.0751C37.1167 49.3698 37.4697 48.4717 38.1342 47.8383C38.7987 47.2049 39.6553 46.8883 40.704 46.8883C41.7734 46.8883 42.6197 47.1842 43.2426 47.776C43.876 48.3678 44.1927 49.1829 44.1927 50.2212C44.1927 51.083 43.9331 51.924 43.414 52.7443C42.9052 53.5541 42.3237 54.2706 41.6696 54.8935C41.0155 55.5061 40.1797 56.2226 39.1621 57.0428H44.5197V58.2265H37.0284V57.2141ZM53.3379 48.3211H47.8713V51.8721C48.1101 51.5398 48.4631 51.2699 48.9304 51.0622C49.3976 50.8442 49.9012 50.7352 50.4411 50.7352C51.3029 50.7352 52.0037 50.9169 52.5436 51.2803C53.0836 51.6333 53.4677 52.0953 53.6961 52.6664C53.935 53.2271 54.0544 53.8241 54.0544 54.4575C54.0544 55.205 53.9142 55.8747 53.6339 56.4666C53.3535 57.0584 52.9226 57.5256 52.3412 57.8683C51.7701 58.2109 51.0589 58.3822 50.2075 58.3822C49.1173 58.3822 48.2347 58.1019 47.5598 57.5412C46.8849 56.9805 46.4748 56.2329 46.3294 55.2985H47.7156C47.8505 55.8903 48.1361 56.3524 48.5721 56.6846C49.0082 57.0169 49.5585 57.183 50.223 57.183C51.0433 57.183 51.6611 56.939 52.0764 56.451C52.4917 55.9526 52.6994 55.2985 52.6994 54.4886C52.6994 53.6787 52.4917 53.0558 52.0764 52.6197C51.6611 52.1732 51.0485 51.95 50.2386 51.95C49.6883 51.95 49.2055 52.0849 48.7902 52.3549C48.3853 52.6145 48.0893 52.9727 47.9024 53.4295H46.563V47.0752H53.3379V48.3211ZM55.9378 52.6041C55.9378 50.8182 56.2285 49.4269 56.8099 48.4301C57.3914 47.423 58.4089 46.9194 59.8625 46.9194C61.3058 46.9194 62.3181 47.423 62.8996 48.4301C63.481 49.4269 63.7717 50.8182 63.7717 52.6041C63.7717 54.4211 63.481 55.8332 62.8996 56.8404C62.3181 57.8475 61.3058 58.3511 59.8625 58.3511C58.4089 58.3511 57.3914 57.8475 56.8099 56.8404C56.2285 55.8332 55.9378 54.4211 55.9378 52.6041ZM62.37 52.6041C62.37 51.7008 62.3077 50.9376 62.1831 50.3146C62.0689 49.6813 61.8249 49.1725 61.4511 48.7884C61.0877 48.4042 60.5582 48.2121 59.8625 48.2121C59.1565 48.2121 58.6166 48.4042 58.2428 48.7884C57.8794 49.1725 57.6354 49.6813 57.5108 50.3146C57.3966 50.9376 57.3395 51.7008 57.3395 52.6041C57.3395 53.5386 57.3966 54.3225 57.5108 54.9558C57.6354 55.5892 57.8794 56.098 58.2428 56.4821C58.6166 56.8663 59.1565 57.0584 59.8625 57.0584C60.5582 57.0584 61.0877 56.8663 61.4511 56.4821C61.8249 56.098 62.0689 55.5892 62.1831 54.9558C62.3077 54.3225 62.37 53.5386 62.37 52.6041ZM65.7174 52.6041C65.7174 50.8182 66.0082 49.4269 66.5896 48.4301C67.1711 47.423 68.1886 46.9194 69.6422 46.9194C71.0854 46.9194 72.0978 47.423 72.6792 48.4301C73.2607 49.4269 73.5514 50.8182 73.5514 52.6041C73.5514 54.4211 73.2607 55.8332 72.6792 56.8404C72.0978 57.8475 71.0854 58.3511 69.6422 58.3511C68.1886 58.3511 67.1711 57.8475 66.5896 56.8404C66.0082 55.8332 65.7174 54.4211 65.7174 52.6041ZM72.1497 52.6041C72.1497 51.7008 72.0874 50.9376 71.9628 50.3146C71.8486 49.6813 71.6046 49.1725 71.2308 48.7884C70.8674 48.4042 70.3379 48.2121 69.6422 48.2121C68.9362 48.2121 68.3963 48.4042 68.0225 48.7884C67.6591 49.1725 67.4151 49.6813 67.2905 50.3146C67.1763 50.9376 67.1191 51.7008 67.1191 52.6041C67.1191 53.5386 67.1763 54.3225 67.2905 54.9558C67.4151 55.5892 67.6591 56.098 68.0225 56.4821C68.3963 56.8663 68.9362 57.0584 69.6422 57.0584C70.3379 57.0584 70.8674 56.8663 71.2308 56.4821C71.6046 56.098 71.8486 55.5892 71.9628 54.9558C72.0874 54.3225 72.1497 53.5386 72.1497 52.6041Z" fill="#979699"/>
<path d="M37.0284 98.3843C38.3471 97.3252 39.3802 96.4583 40.1277 95.7834C40.8753 95.0981 41.5035 94.3869 42.0123 93.6497C42.5314 92.9021 42.791 92.1701 42.791 91.4537C42.791 90.7788 42.6249 90.2492 42.2926 89.8651C41.9707 89.4705 41.4464 89.2732 40.7196 89.2732C40.0135 89.2732 39.4632 89.4965 39.0687 89.9429C38.6845 90.379 38.4769 90.9657 38.4457 91.7029H37.0751C37.1167 90.54 37.4697 89.6418 38.1342 89.0085C38.7987 88.3751 39.6553 88.0584 40.704 88.0584C41.7734 88.0584 42.6197 88.3543 43.2426 88.9462C43.876 89.538 44.1927 90.3531 44.1927 91.3914C44.1927 92.2532 43.9331 93.0942 43.414 93.9144C42.9052 94.7243 42.3237 95.4407 41.6696 96.0637C41.0155 96.6763 40.1797 97.3927 39.1621 98.213H44.5197V99.3966H37.0284V98.3843ZM46.1581 93.7743C46.1581 91.9884 46.4488 90.5971 47.0303 89.6003C47.6117 88.5932 48.6293 88.0896 50.0829 88.0896C51.5261 88.0896 52.5384 88.5932 53.1199 89.6003C53.7013 90.5971 53.9921 91.9884 53.9921 93.7743C53.9921 95.5913 53.7013 97.0034 53.1199 98.0105C52.5384 99.0177 51.5261 99.5212 50.0829 99.5212C48.6293 99.5212 47.6117 99.0177 47.0303 98.0105C46.4488 97.0034 46.1581 95.5913 46.1581 93.7743ZM52.5904 93.7743C52.5904 92.8709 52.5281 92.1078 52.4035 91.4848C52.2893 90.8515 52.0453 90.3427 51.6715 89.9585C51.3081 89.5743 50.7785 89.3823 50.0829 89.3823C49.3768 89.3823 48.8369 89.5743 48.4631 89.9585C48.0997 90.3427 47.8557 90.8515 47.7311 91.4848C47.6169 92.1078 47.5598 92.8709 47.5598 93.7743C47.5598 94.7087 47.6169 95.4926 47.7311 96.126C47.8557 96.7594 48.0997 97.2681 48.4631 97.6523C48.8369 98.0365 49.3768 98.2286 50.0829 98.2286C50.7785 98.2286 51.3081 98.0365 51.6715 97.6523C52.0453 97.2681 52.2893 96.7594 52.4035 96.126C52.5281 95.4926 52.5904 94.7087 52.5904 93.7743ZM55.9378 93.7743C55.9378 91.9884 56.2285 90.5971 56.8099 89.6003C57.3914 88.5932 58.4089 88.0896 59.8625 88.0896C61.3058 88.0896 62.3181 88.5932 62.8996 89.6003C63.481 90.5971 63.7717 91.9884 63.7717 93.7743C63.7717 95.5913 63.481 97.0034 62.8996 98.0105C62.3181 99.0177 61.3058 99.5212 59.8625 99.5212C58.4089 99.5212 57.3914 99.0177 56.8099 98.0105C56.2285 97.0034 55.9378 95.5913 55.9378 93.7743ZM62.37 93.7743C62.37 92.8709 62.3077 92.1078 62.1831 91.4848C62.0689 90.8515 61.8249 90.3427 61.4511 89.9585C61.0877 89.5743 60.5582 89.3823 59.8625 89.3823C59.1565 89.3823 58.6166 89.5743 58.2428 89.9585C57.8794 90.3427 57.6354 90.8515 57.5108 91.4848C57.3966 92.1078 57.3395 92.8709 57.3395 93.7743C57.3395 94.7087 57.3966 95.4926 57.5108 96.126C57.6354 96.7594 57.8794 97.2681 58.2428 97.6523C58.6166 98.0365 59.1565 98.2286 59.8625 98.2286C60.5582 98.2286 61.0877 98.0365 61.4511 97.6523C61.8249 97.2681 62.0689 96.7594 62.1831 96.126C62.3077 95.4926 62.37 94.7087 62.37 93.7743ZM65.7174 93.7743C65.7174 91.9884 66.0082 90.5971 66.5896 89.6003C67.1711 88.5932 68.1886 88.0896 69.6422 88.0896C71.0854 88.0896 72.0978 88.5932 72.6792 89.6003C73.2607 90.5971 73.5514 91.9884 73.5514 93.7743C73.5514 95.5913 73.2607 97.0034 72.6792 98.0105C72.0978 99.0177 71.0854 99.5212 69.6422 99.5212C68.1886 99.5212 67.1711 99.0177 66.5896 98.0105C66.0082 97.0034 65.7174 95.5913 65.7174 93.7743ZM72.1497 93.7743C72.1497 92.8709 72.0874 92.1078 71.9628 91.4848C71.8486 90.8515 71.6046 90.3427 71.2308 89.9585C70.8674 89.5743 70.3379 89.3823 69.6422 89.3823C68.9362 89.3823 68.3963 89.5743 68.0225 89.9585C67.6591 90.3427 67.4151 90.8515 67.2905 91.4848C67.1763 92.1078 67.1191 92.8709 67.1191 93.7743C67.1191 94.7087 67.1763 95.4926 67.2905 96.126C67.4151 96.7594 67.6591 97.2681 68.0225 97.6523C68.3963 98.0365 68.9362 98.2286 69.6422 98.2286C70.3379 98.2286 70.8674 98.0365 71.2308 97.6523C71.6046 97.2681 71.8486 96.7594 71.9628 96.126C72.0874 95.4926 72.1497 94.7087 72.1497 93.7743Z" fill="#979699"/>
<path d="M40.8108 130.724V129.431H43.7388V140.692H42.3059V130.724H40.8108ZM53.3531 130.662H47.8865V134.213C48.1253 133.88 48.4783 133.61 48.9455 133.403C49.4128 133.185 49.9163 133.076 50.4563 133.076C51.318 133.076 52.0189 133.257 52.5588 133.621C53.0987 133.974 53.4829 134.436 53.7113 135.007C53.9501 135.568 54.0695 136.165 54.0695 136.798C54.0695 137.545 53.9294 138.215 53.649 138.807C53.3687 139.399 52.9378 139.866 52.3563 140.209C51.7853 140.551 51.074 140.723 50.2226 140.723C49.1324 140.723 48.2499 140.442 47.575 139.882C46.9001 139.321 46.49 138.573 46.3446 137.639H47.7307C47.8657 138.231 48.1512 138.693 48.5873 139.025C49.0234 139.357 49.5737 139.523 50.2382 139.523C51.0585 139.523 51.6763 139.279 52.0916 138.791C52.5069 138.293 52.7145 137.639 52.7145 136.829C52.7145 136.019 52.5069 135.396 52.0916 134.96C51.6763 134.514 51.0637 134.29 50.2538 134.29C49.7035 134.29 49.2207 134.425 48.8054 134.695C48.4004 134.955 48.1045 135.313 47.9176 135.77H46.5782V129.416H53.3531V130.662ZM55.9529 134.945C55.9529 133.159 56.2437 131.767 56.8251 130.771C57.4066 129.763 58.4241 129.26 59.8777 129.26C61.3209 129.26 62.3333 129.763 62.9147 130.771C63.4962 131.767 63.7869 133.159 63.7869 134.945C63.7869 136.762 63.4962 138.174 62.9147 139.181C62.3333 140.188 61.3209 140.692 59.8777 140.692C58.4241 140.692 57.4066 140.188 56.8251 139.181C56.2437 138.174 55.9529 136.762 55.9529 134.945ZM62.3852 134.945C62.3852 134.041 62.3229 133.278 62.1983 132.655C62.0841 132.022 61.8401 131.513 61.4663 131.129C61.1029 130.745 60.5734 130.553 59.8777 130.553C59.1717 130.553 58.6318 130.745 58.258 131.129C57.8946 131.513 57.6506 132.022 57.526 132.655C57.4118 133.278 57.3546 134.041 57.3546 134.945C57.3546 135.879 57.4118 136.663 57.526 137.296C57.6506 137.93 57.8946 138.438 58.258 138.823C58.6318 139.207 59.1717 139.399 59.8777 139.399C60.5734 139.399 61.1029 139.207 61.4663 138.823C61.8401 138.438 62.0841 137.93 62.1983 137.296C62.3229 136.663 62.3852 135.879 62.3852 134.945ZM65.7326 134.945C65.7326 133.159 66.0233 131.767 66.6048 130.771C67.1862 129.763 68.2038 129.26 69.6574 129.26C71.1006 129.26 72.113 129.763 72.6944 130.771C73.2758 131.767 73.5666 133.159 73.5666 134.945C73.5666 136.762 73.2758 138.174 72.6944 139.181C72.113 140.188 71.1006 140.692 69.6574 140.692C68.2038 140.692 67.1862 140.188 66.6048 139.181C66.0233 138.174 65.7326 136.762 65.7326 134.945ZM72.1649 134.945C72.1649 134.041 72.1026 133.278 71.978 132.655C71.8638 132.022 71.6198 131.513 71.246 131.129C70.8826 130.745 70.353 130.553 69.6574 130.553C68.9513 130.553 68.4114 130.745 68.0376 131.129C67.6742 131.513 67.4302 132.022 67.3056 132.655C67.1914 133.278 67.1343 134.041 67.1343 134.945C67.1343 135.879 67.1914 136.663 67.3056 137.296C67.4302 137.93 67.6742 138.438 68.0376 138.823C68.4114 139.207 68.9513 139.399 69.6574 139.399C70.353 139.399 70.8826 139.207 71.246 138.823C71.6198 138.438 71.8638 137.93 71.978 137.296C72.1026 136.663 72.1649 135.879 72.1649 134.945Z" fill="#979699"/>
<path d="M40.8108 171.894V170.601H43.7388V181.862H42.3059V171.894H40.8108ZM46.1733 176.115C46.1733 174.329 46.464 172.938 47.0454 171.941C47.6269 170.934 48.6444 170.43 50.098 170.43C51.5413 170.43 52.5536 170.934 53.1351 171.941C53.7165 172.938 54.0072 174.329 54.0072 176.115C54.0072 177.932 53.7165 179.344 53.1351 180.351C52.5536 181.358 51.5413 181.862 50.098 181.862C48.6444 181.862 47.6269 181.358 47.0454 180.351C46.464 179.344 46.1733 177.932 46.1733 176.115ZM52.6055 176.115C52.6055 175.211 52.5432 174.448 52.4186 173.825C52.3044 173.192 52.0604 172.683 51.6866 172.299C51.3232 171.915 50.7937 171.723 50.098 171.723C49.392 171.723 48.8521 171.915 48.4783 172.299C48.1149 172.683 47.8709 173.192 47.7463 173.825C47.6321 174.448 47.575 175.211 47.575 176.115C47.575 177.049 47.6321 177.833 47.7463 178.466C47.8709 179.1 48.1149 179.609 48.4783 179.993C48.8521 180.377 49.392 180.569 50.098 180.569C50.7937 180.569 51.3232 180.377 51.6866 179.993C52.0604 179.609 52.3044 179.1 52.4186 178.466C52.5432 177.833 52.6055 177.049 52.6055 176.115ZM55.9529 176.115C55.9529 174.329 56.2437 172.938 56.8251 171.941C57.4066 170.934 58.4241 170.43 59.8777 170.43C61.3209 170.43 62.3333 170.934 62.9147 171.941C63.4962 172.938 63.7869 174.329 63.7869 176.115C63.7869 177.932 63.4962 179.344 62.9147 180.351C62.3333 181.358 61.3209 181.862 59.8777 181.862C58.4241 181.862 57.4066 181.358 56.8251 180.351C56.2437 179.344 55.9529 177.932 55.9529 176.115ZM62.3852 176.115C62.3852 175.211 62.3229 174.448 62.1983 173.825C62.0841 173.192 61.8401 172.683 61.4663 172.299C61.1029 171.915 60.5734 171.723 59.8777 171.723C59.1717 171.723 58.6318 171.915 58.258 172.299C57.8946 172.683 57.6506 173.192 57.526 173.825C57.4118 174.448 57.3546 175.211 57.3546 176.115C57.3546 177.049 57.4118 177.833 57.526 178.466C57.6506 179.1 57.8946 179.609 58.258 179.993C58.6318 180.377 59.1717 180.569 59.8777 180.569C60.5734 180.569 61.1029 180.377 61.4663 179.993C61.8401 179.609 62.0841 179.1 62.1983 178.466C62.3229 177.833 62.3852 177.049 62.3852 176.115ZM65.7326 176.115C65.7326 174.329 66.0233 172.938 66.6048 171.941C67.1862 170.934 68.2038 170.43 69.6574 170.43C71.1006 170.43 72.113 170.934 72.6944 171.941C73.2758 172.938 73.5666 174.329 73.5666 176.115C73.5666 177.932 73.2758 179.344 72.6944 180.351C72.113 181.358 71.1006 181.862 69.6574 181.862C68.2038 181.862 67.1862 181.358 66.6048 180.351C66.0233 179.344 65.7326 177.932 65.7326 176.115ZM72.1649 176.115C72.1649 175.211 72.1026 174.448 71.978 173.825C71.8638 173.192 71.6198 172.683 71.246 172.299C70.8826 171.915 70.353 171.723 69.6574 171.723C68.9513 171.723 68.4114 171.915 68.0376 172.299C67.6742 172.683 67.4302 173.192 67.3056 173.825C67.1914 174.448 67.1343 175.211 67.1343 176.115C67.1343 177.049 67.1914 177.833 67.3056 178.466C67.4302 179.1 67.6742 179.609 68.0376 179.993C68.4114 180.377 68.9513 180.569 69.6574 180.569C70.353 180.569 70.8826 180.377 71.246 179.993C71.6198 179.609 71.8638 179.1 71.978 178.466C72.1026 177.833 72.1649 177.049 72.1649 176.115Z" fill="#979699"/>
<path d="M53.3588 213.002H47.8921V216.553C48.1309 216.221 48.4839 215.951 48.9512 215.743C49.4184 215.525 49.922 215.416 50.4619 215.416C51.3237 215.416 52.0245 215.598 52.5645 215.961C53.1044 216.314 53.4885 216.776 53.717 217.347C53.9558 217.908 54.0752 218.505 54.0752 219.138C54.0752 219.886 53.935 220.556 53.6547 221.147C53.3743 221.739 52.9434 222.206 52.362 222.549C51.7909 222.892 51.0797 223.063 50.2283 223.063C49.1381 223.063 48.2555 222.783 47.5806 222.222C46.9057 221.661 46.4956 220.914 46.3502 219.979H47.7364C47.8713 220.571 48.1569 221.033 48.593 221.365C49.0291 221.698 49.5793 221.864 50.2439 221.864C51.0641 221.864 51.6819 221.62 52.0972 221.132C52.5125 220.633 52.7202 219.979 52.7202 219.169C52.7202 218.36 52.5125 217.737 52.0972 217.3C51.6819 216.854 51.0693 216.631 50.2594 216.631C49.7091 216.631 49.2263 216.766 48.811 217.036C48.4061 217.295 48.1102 217.653 47.9233 218.11H46.5839V211.756H53.3588V213.002ZM55.9586 217.285C55.9586 215.499 56.2493 214.108 56.8308 213.111C57.4122 212.104 58.4297 211.6 59.8834 211.6C61.3266 211.6 62.3389 212.104 62.9204 213.111C63.5018 214.108 63.7926 215.499 63.7926 217.285C63.7926 219.102 63.5018 220.514 62.9204 221.521C62.3389 222.528 61.3266 223.032 59.8834 223.032C58.4297 223.032 57.4122 222.528 56.8308 221.521C56.2493 220.514 55.9586 219.102 55.9586 217.285ZM62.3908 217.285C62.3908 216.382 62.3286 215.618 62.204 214.995C62.0897 214.362 61.8457 213.853 61.472 213.469C61.1086 213.085 60.579 212.893 59.8834 212.893C59.1773 212.893 58.6374 213.085 58.2636 213.469C57.9002 213.853 57.6562 214.362 57.5316 214.995C57.4174 215.618 57.3603 216.382 57.3603 217.285C57.3603 218.219 57.4174 219.003 57.5316 219.637C57.6562 220.27 57.9002 220.779 58.2636 221.163C58.6374 221.547 59.1773 221.739 59.8834 221.739C60.579 221.739 61.1086 221.547 61.472 221.163C61.8457 220.779 62.0897 220.27 62.204 219.637C62.3286 219.003 62.3908 218.219 62.3908 217.285ZM65.7383 217.285C65.7383 215.499 66.029 214.108 66.6104 213.111C67.1919 212.104 68.2094 211.6 69.663 211.6C71.1063 211.6 72.1186 212.104 72.7001 213.111C73.2815 214.108 73.5722 215.499 73.5722 217.285C73.5722 219.102 73.2815 220.514 72.7001 221.521C72.1186 222.528 71.1063 223.032 69.663 223.032C68.2094 223.032 67.1919 222.528 66.6104 221.521C66.029 220.514 65.7383 219.102 65.7383 217.285ZM72.1705 217.285C72.1705 216.382 72.1082 215.618 71.9836 214.995C71.8694 214.362 71.6254 213.853 71.2516 213.469C70.8882 213.085 70.3587 212.893 69.663 212.893C68.957 212.893 68.4171 213.085 68.0433 213.469C67.6799 213.853 67.4359 214.362 67.3113 214.995C67.1971 215.618 67.14 216.382 67.14 217.285C67.14 218.219 67.1971 219.003 67.3113 219.637C67.4359 220.27 67.6799 220.779 68.0433 221.163C68.4171 221.547 68.957 221.739 69.663 221.739C70.3587 221.739 70.8882 221.547 71.2516 221.163C71.6254 220.779 71.8694 220.27 71.9836 219.637C72.1082 219.003 72.1705 218.219 72.1705 217.285Z" fill="#979699"/>
<path d="M65.9586 258.455C65.9586 256.669 66.2493 255.278 66.8308 254.281C67.4122 253.274 68.4297 252.77 69.8834 252.77C71.3266 252.77 72.3389 253.274 72.9204 254.281C73.5018 255.278 73.7926 256.669 73.7926 258.455C73.7926 260.272 73.5018 261.684 72.9204 262.691C72.3389 263.699 71.3266 264.202 69.8834 264.202C68.4297 264.202 67.4122 263.699 66.8308 262.691C66.2493 261.684 65.9586 260.272 65.9586 258.455ZM72.3908 258.455C72.3908 257.552 72.3286 256.789 72.204 256.166C72.0897 255.532 71.8457 255.024 71.472 254.639C71.1086 254.255 70.579 254.063 69.8834 254.063C69.1773 254.063 68.6374 254.255 68.2636 254.639C67.9002 255.024 67.6562 255.532 67.5316 256.166C67.4174 256.789 67.3603 257.552 67.3603 258.455C67.3603 259.39 67.4174 260.174 67.5316 260.807C67.6562 261.44 67.9002 261.949 68.2636 262.333C68.6374 262.717 69.1773 262.909 69.8834 262.909C70.579 262.909 71.1086 262.717 71.472 262.333C71.8457 261.949 72.0897 261.44 72.204 260.807C72.3286 260.174 72.3908 259.39 72.3908 258.455Z" fill="#979699"/>
<rect x="116.394" y="133.681" width="20.766" height="125.894" fill="url(#paint0_linear_210_12804)"/>
<rect x="173.5" y="193.383" width="20.766" height="66.1915" fill="url(#paint1_linear_210_12804)"/>
<rect x="230.606" y="94.7446" width="20.766" height="164.83" fill="url(#paint2_linear_210_12804)"/>
<rect x="287.713" y="147.957" width="20.766" height="111.617" fill="url(#paint3_linear_210_12804)"/>
<rect x="344.819" y="75.2766" width="20.766" height="184.298" fill="url(#paint4_linear_210_12804)"/>
<rect x="401.926" y="58.4042" width="20.766" height="201.17" fill="url(#paint5_linear_210_12804)"/>
<rect x="459.031" y="88.2554" width="20.766" height="171.319" fill="url(#paint6_linear_210_12804)"/>
<rect x="516.138" y="88.2554" width="20.766" height="171.319" fill="url(#paint7_linear_210_12804)"/>
<rect x="573.244" y="124.596" width="20.766" height="134.979" fill="url(#paint8_linear_210_12804)"/>
<rect x="630.351" y="37.6383" width="20.766" height="221.936" fill="url(#paint9_linear_210_12804)"/>
<rect x="687.458" y="83.0638" width="20.766" height="176.511" fill="url(#paint10_linear_210_12804)"/>
<rect x="744.564" y="99.9362" width="20.766" height="159.638" fill="url(#paint11_linear_210_12804)"/>
<defs>
<linearGradient id="paint0_linear_210_12804" x1="126.777" y1="133.681" x2="126.777" y2="259.575" gradientUnits="userSpaceOnUse">
<stop stop-color="#1E6FF2"/>
<stop offset="1" stop-color="#5BB0FF"/>
</linearGradient>
<linearGradient id="paint1_linear_210_12804" x1="183.883" y1="193.383" x2="183.883" y2="259.574" gradientUnits="userSpaceOnUse">
<stop stop-color="#1E6FF2"/>
<stop offset="1" stop-color="#5BB0FF"/>
</linearGradient>
<linearGradient id="paint2_linear_210_12804" x1="240.989" y1="94.7446" x2="240.989" y2="259.574" gradientUnits="userSpaceOnUse">
<stop stop-color="#1E6FF2"/>
<stop offset="1" stop-color="#5BB0FF"/>
</linearGradient>
<linearGradient id="paint3_linear_210_12804" x1="298.096" y1="147.957" x2="298.096" y2="259.574" gradientUnits="userSpaceOnUse">
<stop stop-color="#1E6FF2"/>
<stop offset="1" stop-color="#5BB0FF"/>
</linearGradient>
<linearGradient id="paint4_linear_210_12804" x1="355.202" y1="75.2766" x2="355.202" y2="259.574" gradientUnits="userSpaceOnUse">
<stop stop-color="#1E6FF2"/>
<stop offset="1" stop-color="#5BB0FF"/>
</linearGradient>
<linearGradient id="paint5_linear_210_12804" x1="412.309" y1="58.4042" x2="412.309" y2="259.574" gradientUnits="userSpaceOnUse">
<stop stop-color="#1E6FF2"/>
<stop offset="1" stop-color="#5BB0FF"/>
</linearGradient>
<linearGradient id="paint6_linear_210_12804" x1="469.414" y1="88.2554" x2="469.414" y2="259.575" gradientUnits="userSpaceOnUse">
<stop stop-color="#1E6FF2"/>
<stop offset="1" stop-color="#5BB0FF"/>
</linearGradient>
<linearGradient id="paint7_linear_210_12804" x1="526.521" y1="88.2554" x2="526.521" y2="259.575" gradientUnits="userSpaceOnUse">
<stop stop-color="#1E6FF2"/>
<stop offset="1" stop-color="#5BB0FF"/>
</linearGradient>
<linearGradient id="paint8_linear_210_12804" x1="583.627" y1="124.596" x2="583.627" y2="259.574" gradientUnits="userSpaceOnUse">
<stop stop-color="#1E6FF2"/>
<stop offset="1" stop-color="#5BB0FF"/>
</linearGradient>
<linearGradient id="paint9_linear_210_12804" x1="640.734" y1="37.6383" x2="640.734" y2="259.574" gradientUnits="userSpaceOnUse">
<stop stop-color="#1E6FF2"/>
<stop offset="1" stop-color="#5BB0FF"/>
</linearGradient>
<linearGradient id="paint10_linear_210_12804" x1="697.841" y1="83.0638" x2="697.841" y2="259.574" gradientUnits="userSpaceOnUse">
<stop stop-color="#1E6FF2"/>
<stop offset="1" stop-color="#5BB0FF"/>
</linearGradient>
<linearGradient id="paint11_linear_210_12804" x1="754.947" y1="99.9362" x2="754.947" y2="259.574" gradientUnits="userSpaceOnUse">
<stop stop-color="#1E6FF2"/>
<stop offset="1" stop-color="#5BB0FF"/>
</linearGradient>
</defs>
</svg>
