<svg width="659" height="396" viewBox="0 0 659 396" fill="none" xmlns="http://www.w3.org/2000/svg">
<g filter="url(#filter0_dd_45_29386)">
<rect x="8" y="3" width="643" height="380" rx="16" fill="white"/>
<rect x="8.5" y="3.5" width="642" height="379" rx="15.5" stroke="#E0E2E7"/>
<path d="M611 39.375C611.519 39.375 612.027 39.529 612.458 39.8174C612.89 40.1058 613.227 40.5158 613.425 40.9955C613.624 41.4751 613.676 42.0029 613.575 42.5121C613.473 43.0213 613.223 43.489 612.856 43.8562C612.489 44.2233 612.021 44.4733 611.512 44.5746C611.003 44.6758 610.475 44.6239 609.995 44.4252C609.516 44.2265 609.106 43.89 608.817 43.4584C608.529 43.0267 608.375 42.5192 608.375 42C608.375 41.3038 608.652 40.6361 609.144 40.1438C609.636 39.6516 610.304 39.375 611 39.375ZM606.125 42C606.125 41.4808 605.971 40.9733 605.683 40.5416C605.394 40.1099 604.984 39.7735 604.505 39.5748C604.025 39.3761 603.497 39.3242 602.988 39.4254C602.479 39.5267 602.011 39.7767 601.644 40.1438C601.277 40.511 601.027 40.9787 600.925 41.4879C600.824 41.9971 600.876 42.5249 601.075 43.0045C601.273 43.4842 601.61 43.8942 602.042 44.1826C602.473 44.471 602.981 44.625 603.5 44.625C604.196 44.625 604.864 44.3484 605.356 43.8562C605.848 43.3639 606.125 42.6962 606.125 42ZM615.875 42C615.875 42.5192 616.029 43.0267 616.317 43.4584C616.606 43.89 617.016 44.2265 617.495 44.4252C617.975 44.6239 618.503 44.6758 619.012 44.5746C619.521 44.4733 619.989 44.2233 620.356 43.8562C620.723 43.489 620.973 43.0213 621.075 42.5121C621.176 42.0029 621.124 41.4751 620.925 40.9955C620.727 40.5158 620.39 40.1058 619.958 39.8174C619.527 39.529 619.019 39.375 618.5 39.375C617.804 39.375 617.136 39.6516 616.644 40.1438C616.152 40.6361 615.875 41.3038 615.875 42Z" fill="#A8A8BD"/>
<path d="M43.8 50.24C42.3733 50.24 41.1333 49.9333 40.08 49.32C39.04 48.6933 38.2267 47.82 37.64 46.7C37.0667 45.5667 36.78 44.2333 36.78 42.7C36.78 41.18 37.0733 39.8533 37.66 38.72C38.26 37.5867 39.1 36.7067 40.18 36.08C41.26 35.4533 42.5067 35.14 43.92 35.14C45.08 35.14 46.12 35.3533 47.04 35.78C47.96 36.2067 48.72 36.8067 49.32 37.58C49.92 38.34 50.3 39.2467 50.46 40.3H47.76C47.5067 39.4467 47.0333 38.7867 46.34 38.32C45.66 37.84 44.8267 37.6 43.84 37.6C42.96 37.6 42.1867 37.8067 41.52 38.22C40.8667 38.6333 40.36 39.22 40 39.98C39.64 40.74 39.46 41.6467 39.46 42.7C39.46 43.7133 39.64 44.6067 40 45.38C40.36 46.14 40.8667 46.7333 41.52 47.16C42.1867 47.5733 42.96 47.78 43.84 47.78C44.84 47.78 45.6933 47.54 46.4 47.06C47.12 46.58 47.6 45.9333 47.84 45.12H50.5C50.3133 46.1333 49.9067 47.0267 49.28 47.8C48.6667 48.5733 47.8867 49.1733 46.94 49.6C46.0067 50.0267 44.96 50.24 43.8 50.24ZM55.1805 50.26C54.1405 50.26 53.3138 49.98 52.7005 49.42C52.1005 48.8467 51.8005 48.1 51.8005 47.18C51.8005 46.2733 52.1138 45.5533 52.7405 45.02C53.3805 44.4733 54.2871 44.1533 55.4605 44.06L58.4205 43.82V43.6C58.4205 43.1467 58.3338 42.7867 58.1605 42.52C58.0005 42.24 57.7671 42.04 57.4605 41.92C57.1538 41.7867 56.7938 41.72 56.3805 41.72C55.6605 41.72 55.1071 41.8667 54.7205 42.16C54.3338 42.44 54.1405 42.84 54.1405 43.36H52.0605C52.0605 42.64 52.2405 42.02 52.6005 41.5C52.9738 40.9667 53.4938 40.5533 54.1605 40.26C54.8405 39.9667 55.6205 39.82 56.5005 39.82C57.3938 39.82 58.1605 39.98 58.8005 40.3C59.4405 40.6067 59.9338 41.0733 60.2805 41.7C60.6271 42.3133 60.8005 43.08 60.8005 44V50H58.6605L58.4805 48.54C58.2671 49.0467 57.8538 49.46 57.2405 49.78C56.6405 50.1 55.9538 50.26 55.1805 50.26ZM55.9605 48.42C56.7205 48.42 57.3205 48.2067 57.7605 47.78C58.2138 47.3533 58.4405 46.76 58.4405 46V45.48L56.3805 45.64C55.6205 45.7067 55.0805 45.8667 54.7605 46.12C54.4405 46.36 54.2805 46.68 54.2805 47.08C54.2805 47.52 54.4271 47.8533 54.7205 48.08C55.0138 48.3067 55.4271 48.42 55.9605 48.42ZM63.1975 54.58V40.12H65.4575L65.6175 41.62C65.9108 41.0467 66.3642 40.6067 66.9775 40.3C67.5908 39.98 68.2642 39.82 68.9975 39.82C69.9442 39.82 70.7575 40.0333 71.4375 40.46C72.1308 40.8867 72.6708 41.48 73.0575 42.24C73.4442 43 73.6375 43.9 73.6375 44.94C73.6375 45.9667 73.4575 46.88 73.0975 47.68C72.7375 48.48 72.2108 49.1133 71.5175 49.58C70.8375 50.0333 70.0042 50.26 69.0175 50.26C68.2842 50.26 67.6108 50.12 66.9975 49.84C66.3975 49.56 65.9442 49.1733 65.6375 48.68V54.58H63.1975ZM65.6575 45.06C65.6575 45.6467 65.7708 46.1667 65.9975 46.62C66.2242 47.0733 66.5442 47.4333 66.9575 47.7C67.3842 47.9533 67.8775 48.08 68.4375 48.08C69.0108 48.08 69.5042 47.9533 69.9175 47.7C70.3308 47.4333 70.6442 47.0733 70.8575 46.62C71.0708 46.1667 71.1775 45.6467 71.1775 45.06C71.1775 44.4733 71.0708 43.9533 70.8575 43.5C70.6442 43.0467 70.3308 42.6933 69.9175 42.44C69.5042 42.1733 69.0108 42.04 68.4375 42.04C67.8775 42.04 67.3842 42.1667 66.9575 42.42C66.5442 42.6733 66.2242 43.0267 65.9975 43.48C65.7708 43.9333 65.6575 44.46 65.6575 45.06ZM75.5803 50V40.12H78.0203V50H75.5803ZM76.7803 38.14C76.367 38.14 76.0136 38 75.7203 37.72C75.4403 37.4267 75.3003 37.0733 75.3003 36.66C75.3003 36.2467 75.4403 35.9 75.7203 35.62C76.0136 35.34 76.367 35.2 76.7803 35.2C77.1936 35.2 77.5403 35.34 77.8203 35.62C78.1136 35.9 78.2603 36.2467 78.2603 36.66C78.2603 37.0733 78.1136 37.4267 77.8203 37.72C77.5403 38 77.1936 38.14 76.7803 38.14ZM79.5613 40.12H85.8013V42.16H79.5613V40.12ZM83.9013 50H81.4613V37.04H83.9013V50ZM90.2195 50.26C89.1795 50.26 88.3529 49.98 87.7395 49.42C87.1395 48.8467 86.8395 48.1 86.8395 47.18C86.8395 46.2733 87.1529 45.5533 87.7795 45.02C88.4195 44.4733 89.3262 44.1533 90.4995 44.06L93.4595 43.82V43.6C93.4595 43.1467 93.3729 42.7867 93.1995 42.52C93.0395 42.24 92.8062 42.04 92.4995 41.92C92.1929 41.7867 91.8329 41.72 91.4195 41.72C90.6995 41.72 90.1462 41.8667 89.7595 42.16C89.3729 42.44 89.1795 42.84 89.1795 43.36H87.0995C87.0995 42.64 87.2795 42.02 87.6395 41.5C88.0129 40.9667 88.5329 40.5533 89.1995 40.26C89.8795 39.9667 90.6595 39.82 91.5395 39.82C92.4329 39.82 93.1995 39.98 93.8395 40.3C94.4795 40.6067 94.9729 41.0733 95.3195 41.7C95.6662 42.3133 95.8395 43.08 95.8395 44V50H93.6995L93.5195 48.54C93.3062 49.0467 92.8929 49.46 92.2795 49.78C91.6795 50.1 90.9929 50.26 90.2195 50.26ZM90.9995 48.42C91.7595 48.42 92.3595 48.2067 92.7995 47.78C93.2529 47.3533 93.4795 46.76 93.4795 46V45.48L91.4195 45.64C90.6595 45.7067 90.1195 45.8667 89.7995 46.12C89.4795 46.36 89.3195 46.68 89.3195 47.08C89.3195 47.52 89.4662 47.8533 89.7595 48.08C90.0529 48.3067 90.4662 48.42 90.9995 48.42ZM100.697 50H98.2766V35.12H100.697V50ZM111.567 35.38V50H109.007V35.38H111.567ZM114.807 43.78H110.787V41.62H114.667C115.373 41.62 115.913 41.4467 116.287 41.1C116.66 40.74 116.847 40.2333 116.847 39.58C116.847 38.9533 116.653 38.4733 116.267 38.14C115.88 37.8067 115.32 37.64 114.587 37.64H110.707V35.38H114.807C116.26 35.38 117.4 35.7333 118.227 36.44C119.053 37.1467 119.467 38.1133 119.467 39.34C119.467 40.22 119.253 40.96 118.827 41.56C118.4 42.1467 117.767 42.5733 116.927 42.84V42.56C117.833 42.7733 118.52 43.1733 118.987 43.76C119.453 44.3467 119.687 45.1067 119.687 46.04C119.687 46.8667 119.5 47.58 119.127 48.18C118.753 48.7667 118.207 49.22 117.487 49.54C116.78 49.8467 115.927 50 114.927 50H110.707V47.74H114.807C115.54 47.74 116.1 47.5667 116.487 47.22C116.873 46.8733 117.067 46.3733 117.067 45.72C117.067 45.1067 116.867 44.6333 116.467 44.3C116.08 43.9533 115.527 43.78 114.807 43.78ZM127.874 40.08V42.34H126.974C126.081 42.34 125.381 42.58 124.874 43.06C124.367 43.5267 124.114 44.24 124.114 45.2V50H121.674V40.14H123.974L124.174 42.18H123.934C124.067 41.5267 124.381 40.9933 124.874 40.58C125.367 40.1667 126.007 39.96 126.794 39.96C126.967 39.96 127.141 39.9667 127.314 39.98C127.487 39.9933 127.674 40.0267 127.874 40.08ZM133.614 50.26C132.64 50.26 131.774 50.04 131.014 49.6C130.267 49.1467 129.68 48.5333 129.254 47.76C128.827 46.9733 128.614 46.0733 128.614 45.06C128.614 44.0333 128.82 43.1267 129.234 42.34C129.647 41.5533 130.227 40.94 130.974 40.5C131.72 40.0467 132.574 39.82 133.534 39.82C134.534 39.82 135.394 40.0333 136.114 40.46C136.834 40.8733 137.387 41.4533 137.774 42.2C138.174 42.9467 138.374 43.84 138.374 44.88V45.62L129.894 45.64L129.934 44.08H135.954C135.954 43.4 135.734 42.8533 135.294 42.44C134.867 42.0267 134.287 41.82 133.554 41.82C132.98 41.82 132.494 41.94 132.094 42.18C131.707 42.42 131.414 42.78 131.214 43.26C131.014 43.74 130.914 44.3267 130.914 45.02C130.914 46.0867 131.14 46.8933 131.594 47.44C132.06 47.9867 132.747 48.26 133.654 48.26C134.32 48.26 134.867 48.1333 135.294 47.88C135.734 47.6267 136.02 47.2667 136.154 46.8H138.414C138.2 47.88 137.667 48.7267 136.814 49.34C135.974 49.9533 134.907 50.26 133.614 50.26ZM143.169 50.26C142.129 50.26 141.302 49.98 140.689 49.42C140.089 48.8467 139.789 48.1 139.789 47.18C139.789 46.2733 140.102 45.5533 140.729 45.02C141.369 44.4733 142.275 44.1533 143.449 44.06L146.409 43.82V43.6C146.409 43.1467 146.322 42.7867 146.149 42.52C145.989 42.24 145.755 42.04 145.449 41.92C145.142 41.7867 144.782 41.72 144.369 41.72C143.649 41.72 143.095 41.8667 142.709 42.16C142.322 42.44 142.129 42.84 142.129 43.36H140.049C140.049 42.64 140.229 42.02 140.589 41.5C140.962 40.9667 141.482 40.5533 142.149 40.26C142.829 39.9667 143.609 39.82 144.489 39.82C145.382 39.82 146.149 39.98 146.789 40.3C147.429 40.6067 147.922 41.0733 148.269 41.7C148.615 42.3133 148.789 43.08 148.789 44V50H146.649L146.469 48.54C146.255 49.0467 145.842 49.46 145.229 49.78C144.629 50.1 143.942 50.26 143.169 50.26ZM143.949 48.42C144.709 48.42 145.309 48.2067 145.749 47.78C146.202 47.3533 146.429 46.76 146.429 46V45.48L144.369 45.64C143.609 45.7067 143.069 45.8667 142.749 46.12C142.429 46.36 142.269 46.68 142.269 47.08C142.269 47.52 142.415 47.8533 142.709 48.08C143.002 48.3067 143.415 48.42 143.949 48.42ZM153.646 50H151.226V35.12H153.646V44.26L157.486 40.12H160.546L156.786 44.04L160.466 50H157.666L155.086 45.84L153.646 47.34V50ZM165.558 50.26C164.598 50.26 163.772 50.0467 163.078 49.62C162.398 49.18 161.865 48.5733 161.478 47.8C161.105 47.0267 160.918 46.1267 160.918 45.1C160.918 44.0733 161.105 43.1667 161.478 42.38C161.865 41.58 162.418 40.9533 163.138 40.5C163.858 40.0467 164.712 39.82 165.698 39.82C166.392 39.82 167.025 39.96 167.598 40.24C168.172 40.5067 168.612 40.8867 168.918 41.38V35.12H171.338V50H169.098L168.938 48.46C168.645 49.02 168.192 49.46 167.578 49.78C166.978 50.1 166.305 50.26 165.558 50.26ZM166.098 48.02C166.672 48.02 167.165 47.9 167.578 47.66C167.992 47.4067 168.312 47.0533 168.538 46.6C168.778 46.1333 168.898 45.6067 168.898 45.02C168.898 44.42 168.778 43.9 168.538 43.46C168.312 43.0067 167.992 42.6533 167.578 42.4C167.165 42.1333 166.672 42 166.098 42C165.538 42 165.052 42.1333 164.638 42.4C164.225 42.6533 163.905 43.0067 163.678 43.46C163.465 43.9133 163.358 44.4333 163.358 45.02C163.358 45.6067 163.465 46.1267 163.678 46.58C163.905 47.0333 164.225 47.3867 164.638 47.64C165.052 47.8933 165.538 48.02 166.098 48.02ZM173.301 45.04C173.301 44.0133 173.528 43.1133 173.981 42.34C174.434 41.5533 175.061 40.94 175.861 40.5C176.661 40.06 177.568 39.84 178.581 39.84C179.608 39.84 180.514 40.06 181.301 40.5C182.101 40.94 182.728 41.5533 183.181 42.34C183.634 43.1133 183.861 44.0133 183.861 45.04C183.861 46.0667 183.634 46.9733 183.181 47.76C182.728 48.5333 182.101 49.14 181.301 49.58C180.514 50.02 179.608 50.24 178.581 50.24C177.568 50.24 176.661 50.02 175.861 49.58C175.061 49.14 174.434 48.5333 173.981 47.76C173.528 46.9733 173.301 46.0667 173.301 45.04ZM175.741 45.04C175.741 45.64 175.861 46.1667 176.101 46.62C176.354 47.0733 176.688 47.4267 177.101 47.68C177.528 47.9333 178.021 48.06 178.581 48.06C179.141 48.06 179.634 47.9333 180.061 47.68C180.488 47.4267 180.821 47.0733 181.061 46.62C181.301 46.1667 181.421 45.64 181.421 45.04C181.421 44.4267 181.301 43.9 181.061 43.46C180.821 43.0067 180.488 42.6533 180.061 42.4C179.634 42.1467 179.141 42.02 178.581 42.02C178.021 42.02 177.528 42.1467 177.101 42.4C176.688 42.6533 176.354 43.0067 176.101 43.46C175.861 43.9 175.741 44.4267 175.741 45.04ZM187.506 50L184.306 40.12H186.846L188.146 44.36C188.253 44.7467 188.36 45.1533 188.466 45.58C188.573 46.0067 188.666 46.4533 188.746 46.92C188.813 46.6 188.873 46.3067 188.926 46.04C188.993 45.7733 189.066 45.5133 189.146 45.26C189.226 44.9933 189.32 44.6933 189.426 44.36L190.786 40.12H193.266L194.586 44.36C194.613 44.4533 194.653 44.6133 194.706 44.84C194.773 45.0533 194.84 45.2867 194.906 45.54C194.973 45.7933 195.033 46.0467 195.086 46.3C195.153 46.54 195.2 46.7467 195.226 46.92C195.28 46.6667 195.346 46.38 195.426 46.06C195.506 45.74 195.586 45.4333 195.666 45.14C195.76 44.8333 195.833 44.5733 195.886 44.36L197.206 40.12H199.786L196.366 50H194.086L192.726 45.72C192.526 45.0667 192.366 44.5133 192.246 44.06C192.126 43.5933 192.046 43.2333 192.006 42.98C191.966 43.22 191.893 43.54 191.786 43.94C191.68 44.34 191.5 44.9467 191.246 45.76L189.886 50H187.506ZM203.704 50H201.264V40.12H203.524L203.724 41.4C204.031 40.9067 204.464 40.52 205.024 40.24C205.597 39.96 206.217 39.82 206.884 39.82C208.124 39.82 209.057 40.1867 209.684 40.92C210.324 41.6533 210.644 42.6533 210.644 43.92V50H208.204V44.5C208.204 43.6733 208.017 43.06 207.644 42.66C207.271 42.2467 206.764 42.04 206.124 42.04C205.364 42.04 204.771 42.28 204.344 42.76C203.917 43.24 203.704 43.88 203.704 44.68V50Z" fill="#16161D"/>
<path fill-rule="evenodd" clip-rule="evenodd" d="M254.065 134.526C246.263 125.809 232.903 125.096 224.226 132.933C215.548 140.771 214.839 154.192 222.641 162.909C235.777 177.585 243.744 196.948 243.744 218.23C243.744 249.708 226.254 277.082 200.504 291.081C208.155 294.624 214.255 301.409 216.659 310.209C218.688 317.633 217.726 325.172 214.507 331.533C256.764 311.488 286.003 268.289 286.003 218.23C286.003 186.067 273.905 156.692 254.065 134.526Z" fill="#76D6FF"/>
<path d="M113.069 150.276C126.408 140.93 142.606 135.451 160.142 135.451C177.678 135.451 193.877 140.93 207.216 150.276C207.532 150.498 207.852 150.709 208.175 150.911C207.529 142.06 210.821 133.013 217.899 126.62C222.94 122.067 229.109 119.575 235.383 119.089C234.238 117.743 232.905 116.519 231.392 115.459C211.191 101.304 186.6 93 160.142 93C133.684 93 109.093 101.304 88.8927 115.459C79.3217 122.165 76.9748 135.396 83.6508 145.01C90.3268 154.625 103.498 156.983 113.069 150.276Z" fill="#B9A9FF"/>
<path fill-rule="evenodd" clip-rule="evenodd" d="M71.4431 131.222C70.0991 132.151 68.8418 133.253 67.7028 134.526C58.1832 145.162 50.4418 157.458 44.964 170.945C40.5555 181.799 45.7405 194.187 56.5451 198.616C67.3497 203.045 79.6824 197.836 84.0909 186.982C87.7013 178.093 92.8155 169.96 99.127 162.909C99.2349 162.788 99.3411 162.667 99.4457 162.544C90.6482 162.079 82.1484 157.688 76.718 149.868C72.7805 144.197 71.085 137.628 71.4431 131.222Z" fill="#FFCE46"/>
<path fill-rule="evenodd" clip-rule="evenodd" d="M39.7761 191.407C42.8045 198.008 48.236 203.515 55.4637 206.477C63.414 209.736 71.9552 209.267 79.1661 205.883C78.5694 209.9 78.2585 214.022 78.2585 218.23C78.2585 245.008 90.9157 268.817 110.548 283.947C111.592 284.446 112.61 285.037 113.589 285.724C126.928 295.07 143.127 300.549 160.663 300.549C168.266 300.549 175.596 299.52 182.538 297.606C193.791 294.503 205.418 301.152 208.506 312.457C211.595 323.761 204.976 335.44 193.723 338.543C183.171 341.453 172.08 343 160.663 343C152.948 343 145.393 342.294 138.058 340.943C138.214 341.128 138.373 341.312 138.533 341.493C80.2404 331.003 36 279.807 36 218.23C36 211.291 36.5639 204.469 37.6523 197.811C38.0279 195.513 38.7576 193.363 39.7761 191.407Z" fill="#63F2B2"/>
<path d="M380.361 158.5C380.361 161.261 378.123 163.5 375.361 163.5C372.6 163.5 370.361 161.261 370.361 158.5C370.361 155.738 372.6 153.5 375.361 153.5C378.123 153.5 380.361 155.738 380.361 158.5Z" fill="#76D6FF"/>
<path d="M405.774 163H404.206V151.432H405.774V156.408H411.502V151.432H413.07V163H411.502V157.864H405.774V163ZM421.625 155.176H422.953V163H421.577L421.449 161.576C421.183 162.077 420.804 162.477 420.313 162.776C419.833 163.064 419.268 163.208 418.617 163.208C417.849 163.208 417.193 163.027 416.649 162.664C416.105 162.301 415.689 161.805 415.401 161.176C415.124 160.547 414.985 159.832 414.985 159.032C414.985 158.232 415.135 157.528 415.433 156.92C415.743 156.301 416.169 155.821 416.713 155.48C417.268 155.128 417.919 154.952 418.665 154.952C419.263 154.952 419.823 155.091 420.345 155.368C420.868 155.635 421.257 156.051 421.513 156.616L421.625 155.176ZM421.417 159.096C421.417 158.552 421.316 158.072 421.113 157.656C420.921 157.24 420.644 156.915 420.281 156.68C419.919 156.445 419.476 156.328 418.953 156.328C418.452 156.328 418.015 156.445 417.641 156.68C417.268 156.915 416.985 157.24 416.793 157.656C416.601 158.072 416.505 158.552 416.505 159.096C416.505 159.629 416.601 160.104 416.793 160.52C416.985 160.936 417.263 161.261 417.625 161.496C417.988 161.731 418.425 161.848 418.937 161.848C419.449 161.848 419.887 161.731 420.249 161.496C420.623 161.261 420.911 160.936 421.113 160.52C421.316 160.104 421.417 159.629 421.417 159.096ZM429.602 155.112V156.488H428.93C428.216 156.488 427.65 156.696 427.234 157.112C426.829 157.517 426.626 158.099 426.626 158.856V163H425.122V155.192H426.53L426.658 156.76H426.514C426.621 156.248 426.877 155.832 427.282 155.512C427.688 155.181 428.194 155.016 428.802 155.016C428.941 155.016 429.069 155.027 429.186 155.048C429.314 155.059 429.453 155.08 429.602 155.112ZM431.013 163V155.176H432.517V163H431.013ZM431.749 153.32C431.482 153.32 431.247 153.224 431.045 153.032C430.853 152.829 430.757 152.595 430.757 152.328C430.757 152.051 430.853 151.816 431.045 151.624C431.247 151.432 431.482 151.336 431.749 151.336C432.026 151.336 432.261 151.432 432.453 151.624C432.645 151.816 432.741 152.051 432.741 152.328C432.741 152.595 432.645 152.829 432.453 153.032C432.261 153.224 432.026 153.32 431.749 153.32ZM434.06 160.728H435.5C435.5 161.123 435.644 161.437 435.932 161.672C436.22 161.896 436.61 162.008 437.1 162.008C437.634 162.008 438.044 161.907 438.332 161.704C438.62 161.491 438.764 161.208 438.764 160.856C438.764 160.6 438.684 160.387 438.524 160.216C438.375 160.045 438.098 159.907 437.692 159.8L436.316 159.48C435.623 159.309 435.106 159.048 434.764 158.696C434.434 158.344 434.268 157.88 434.268 157.304C434.268 156.824 434.391 156.408 434.636 156.056C434.892 155.704 435.239 155.432 435.676 155.24C436.124 155.048 436.636 154.952 437.212 154.952C437.788 154.952 438.284 155.053 438.7 155.256C439.127 155.459 439.458 155.741 439.692 156.104C439.938 156.467 440.066 156.899 440.076 157.4H438.636C438.626 156.995 438.492 156.68 438.236 156.456C437.98 156.232 437.623 156.12 437.164 156.12C436.695 156.12 436.332 156.221 436.076 156.424C435.82 156.627 435.692 156.904 435.692 157.256C435.692 157.779 436.076 158.136 436.844 158.328L438.22 158.664C438.882 158.813 439.378 159.059 439.708 159.4C440.039 159.731 440.204 160.184 440.204 160.76C440.204 161.251 440.071 161.683 439.804 162.056C439.538 162.419 439.17 162.701 438.7 162.904C438.242 163.096 437.698 163.192 437.068 163.192C436.151 163.192 435.42 162.968 434.876 162.52C434.332 162.072 434.06 161.475 434.06 160.728Z" fill="#1C1C1C"/>
<path d="M581.618 152.837L577.106 157.315L576.325 156.637L580.685 152.328L580.838 152.938H574.255V151.853H581.618V152.837ZM577.292 157.485H576.325V156.637C576.518 156.569 576.727 156.518 576.953 156.484C577.179 156.45 577.411 156.433 577.649 156.433C578.271 156.433 578.836 156.524 579.345 156.705C579.854 156.874 580.301 157.129 580.685 157.468C581.07 157.796 581.364 158.192 581.568 158.656C581.782 159.119 581.89 159.64 581.89 160.217C581.89 161.02 581.709 161.721 581.347 162.32C580.985 162.92 580.482 163.383 579.837 163.711C579.204 164.039 578.48 164.203 577.666 164.203C576.862 164.203 576.161 164.051 575.562 163.745C574.962 163.429 574.493 162.976 574.154 162.388C573.826 161.8 573.662 161.104 573.662 160.301H574.866C574.866 161.172 575.121 161.857 575.63 162.354C576.139 162.852 576.817 163.101 577.666 163.101C578.582 163.101 579.306 162.835 579.837 162.303C580.38 161.772 580.651 161.065 580.651 160.183C580.651 159.346 580.363 158.69 579.786 158.215C579.209 157.728 578.378 157.485 577.292 157.485ZM583.508 160.692C583.508 159.855 583.768 159.136 584.288 158.537C584.808 157.938 585.504 157.553 586.375 157.383L586.392 157.706C585.611 157.502 585.006 157.146 584.577 156.637C584.147 156.117 583.932 155.495 583.932 154.771C583.932 154.149 584.096 153.606 584.424 153.142C584.752 152.667 585.21 152.299 585.798 152.039C586.386 151.768 587.071 151.632 587.851 151.632C588.62 151.632 589.293 151.768 589.87 152.039C590.447 152.299 590.893 152.667 591.21 153.142C591.538 153.606 591.702 154.154 591.702 154.788C591.702 155.511 591.487 156.134 591.057 156.654C590.639 157.163 590.045 157.508 589.276 157.689L589.259 157.4C589.836 157.479 590.339 157.677 590.769 157.994C591.21 158.299 591.549 158.684 591.787 159.148C592.036 159.611 592.16 160.132 592.16 160.709C592.16 161.399 591.974 162.009 591.6 162.541C591.238 163.061 590.735 163.468 590.09 163.762C589.446 164.056 588.694 164.203 587.834 164.203C586.974 164.203 586.217 164.056 585.561 163.762C584.916 163.468 584.413 163.055 584.051 162.524C583.689 161.992 583.508 161.382 583.508 160.692ZM584.712 160.59C584.712 161.087 584.842 161.529 585.103 161.913C585.363 162.286 585.725 162.58 586.188 162.795C586.663 162.999 587.218 163.101 587.851 163.101C588.473 163.101 589.016 162.999 589.48 162.795C589.943 162.58 590.305 162.286 590.565 161.913C590.826 161.54 590.956 161.099 590.956 160.59C590.956 159.843 590.667 159.25 590.09 158.808C589.525 158.356 588.767 158.13 587.817 158.13C586.878 158.13 586.126 158.356 585.561 158.808C584.995 159.25 584.712 159.843 584.712 160.59ZM585.086 154.805C585.086 155.472 585.334 156.015 585.832 156.433C586.341 156.84 587.008 157.044 587.834 157.044C588.66 157.044 589.316 156.846 589.802 156.45C590.3 156.043 590.548 155.506 590.548 154.839C590.548 154.194 590.3 153.679 589.802 153.295C589.316 152.91 588.66 152.718 587.834 152.718C587.008 152.718 586.341 152.91 585.832 153.295C585.334 153.668 585.086 154.171 585.086 154.805ZM594.988 164.187C594.705 164.187 594.456 164.085 594.241 163.881C594.027 163.678 593.919 163.434 593.919 163.152C593.919 162.858 594.027 162.609 594.241 162.405C594.456 162.19 594.705 162.083 594.988 162.083C595.282 162.083 595.531 162.19 595.734 162.405C595.949 162.609 596.057 162.858 596.057 163.152C596.057 163.434 595.949 163.678 595.734 163.881C595.531 164.085 595.282 164.187 594.988 164.187ZM598.999 155.941L602.036 151.853H603.461L599.949 156.518L599.729 156.416C600.125 156.145 600.498 155.953 600.849 155.839C601.199 155.726 601.561 155.67 601.934 155.67C602.783 155.67 603.524 155.856 604.157 156.23C604.79 156.603 605.277 157.112 605.616 157.757C605.967 158.39 606.142 159.103 606.142 159.894C606.142 160.72 605.95 161.461 605.565 162.117C605.192 162.761 604.677 163.27 604.021 163.644C603.376 164.017 602.647 164.203 601.833 164.203C601.018 164.203 600.277 164.017 599.61 163.644C598.954 163.259 598.434 162.744 598.049 162.1C597.665 161.444 597.472 160.709 597.472 159.894C597.472 159.419 597.518 158.984 597.608 158.588C597.71 158.181 597.868 157.768 598.083 157.349C598.309 156.931 598.615 156.462 598.999 155.941ZM598.711 159.911C598.711 160.522 598.841 161.071 599.101 161.557C599.361 162.032 599.729 162.411 600.204 162.694C600.679 162.965 601.222 163.101 601.833 163.101C602.432 163.101 602.964 162.965 603.427 162.694C603.891 162.411 604.253 162.032 604.513 161.557C604.785 161.071 604.92 160.522 604.92 159.911C604.92 159.289 604.785 158.741 604.513 158.266C604.253 157.791 603.891 157.417 603.427 157.146C602.964 156.874 602.432 156.739 601.833 156.739C601.222 156.739 600.679 156.874 600.204 157.146C599.729 157.417 599.361 157.791 599.101 158.266C598.841 158.741 598.711 159.289 598.711 159.911ZM613.684 154.635C613.684 155.212 613.554 155.732 613.294 156.196C613.045 156.648 612.694 157.004 612.242 157.265C611.801 157.513 611.292 157.638 610.715 157.638C610.138 157.638 609.623 157.513 609.171 157.265C608.73 157.004 608.379 156.648 608.119 156.196C607.859 155.732 607.729 155.212 607.729 154.635C607.729 154.047 607.859 153.527 608.119 153.074C608.379 152.622 608.73 152.265 609.171 152.005C609.623 151.745 610.138 151.615 610.715 151.615C611.292 151.615 611.801 151.745 612.242 152.005C612.694 152.265 613.045 152.622 613.294 153.074C613.554 153.527 613.684 154.047 613.684 154.635ZM612.666 154.635C612.666 154.035 612.485 153.549 612.123 153.176C611.761 152.791 611.292 152.599 610.715 152.599C610.138 152.599 609.663 152.791 609.29 153.176C608.928 153.549 608.747 154.035 608.747 154.635C608.747 155.234 608.928 155.726 609.29 156.111C609.663 156.484 610.138 156.671 610.715 156.671C611.292 156.671 611.761 156.484 612.123 156.111C612.485 155.726 612.666 155.234 612.666 154.635ZM619.842 151.853L610.613 164H609.391L618.604 151.853H619.842ZM621.522 161.218C621.522 161.794 621.392 162.315 621.132 162.778C620.883 163.231 620.532 163.587 620.08 163.847C619.639 164.096 619.13 164.22 618.553 164.22C617.976 164.22 617.461 164.096 617.009 163.847C616.568 163.587 616.217 163.231 615.957 162.778C615.697 162.315 615.567 161.794 615.567 161.218C615.567 160.629 615.697 160.109 615.957 159.657C616.217 159.204 616.568 158.848 617.009 158.588C617.461 158.328 617.976 158.198 618.553 158.198C619.13 158.198 619.639 158.328 620.08 158.588C620.532 158.848 620.883 159.204 621.132 159.657C621.392 160.109 621.522 160.629 621.522 161.218ZM620.504 161.218C620.504 160.618 620.323 160.132 619.961 159.759C619.599 159.374 619.13 159.182 618.553 159.182C617.976 159.182 617.501 159.374 617.128 159.759C616.766 160.132 616.585 160.618 616.585 161.218C616.585 161.806 616.766 162.292 617.128 162.677C617.501 163.05 617.976 163.236 618.553 163.236C619.13 163.236 619.599 163.05 619.961 162.677C620.323 162.292 620.504 161.806 620.504 161.218Z" fill="#1C1C1C"/>
<path d="M380.361 198.5C380.361 201.261 378.123 203.5 375.361 203.5C372.6 203.5 370.361 201.261 370.361 198.5C370.361 195.738 372.6 193.5 375.361 193.5C378.123 193.5 380.361 195.738 380.361 198.5Z" fill="#63F2B2"/>
<path d="M412.798 191.432L405.454 200.744V198.392L410.926 191.432H412.798ZM405.774 191.432V203H404.206V191.432H405.774ZM407.806 197.544L408.83 196.2L412.862 203H411.038L407.806 197.544ZM414.232 203V195.176H415.736V203H414.232ZM414.968 193.32C414.701 193.32 414.466 193.224 414.264 193.032C414.072 192.829 413.976 192.595 413.976 192.328C413.976 192.051 414.072 191.816 414.264 191.624C414.466 191.432 414.701 191.336 414.968 191.336C415.245 191.336 415.48 191.432 415.672 191.624C415.864 191.816 415.96 192.051 415.96 192.328C415.96 192.595 415.864 192.829 415.672 193.032C415.48 193.224 415.245 193.32 414.968 193.32ZM422.399 195.112V196.488H421.727C421.012 196.488 420.447 196.696 420.031 197.112C419.626 197.517 419.423 198.099 419.423 198.856V203H417.919V195.192H419.327L419.455 196.76H419.311C419.418 196.248 419.674 195.832 420.079 195.512C420.484 195.181 420.991 195.016 421.599 195.016C421.738 195.016 421.866 195.027 421.983 195.048C422.111 195.059 422.25 195.08 422.399 195.112ZM423.81 203V195.176H425.314V203H423.81ZM424.546 193.32C424.279 193.32 424.044 193.224 423.842 193.032C423.65 192.829 423.554 192.595 423.554 192.328C423.554 192.051 423.65 191.816 423.842 191.624C424.044 191.432 424.279 191.336 424.546 191.336C424.823 191.336 425.058 191.432 425.25 191.624C425.442 191.816 425.538 192.051 425.538 192.328C425.538 192.595 425.442 192.829 425.25 193.032C425.058 193.224 424.823 193.32 424.546 193.32ZM429.033 203H427.529V191.224H429.033V203ZM432.783 203H431.279V191.224H432.783V203Z" fill="#1C1C1C"/>
<path d="M582.771 204H574.763V203.033L578.649 199.64C579.214 199.153 579.678 198.724 580.04 198.35C580.402 197.977 580.684 197.638 580.888 197.332C581.103 197.016 581.25 196.705 581.329 196.399C581.42 196.094 581.465 195.76 581.465 195.398C581.465 194.584 581.233 193.939 580.769 193.464C580.306 192.989 579.672 192.752 578.869 192.752C578.032 192.752 577.354 193.035 576.833 193.6C576.324 194.166 576.058 194.918 576.036 195.856H574.814C574.848 195.008 575.035 194.267 575.374 193.634C575.714 193.001 576.183 192.509 576.782 192.158C577.393 191.807 578.094 191.632 578.886 191.632C579.655 191.632 580.322 191.79 580.888 192.107C581.465 192.412 581.912 192.842 582.228 193.396C582.545 193.939 582.703 194.584 582.703 195.331C582.703 195.76 582.647 196.173 582.534 196.569C582.421 196.954 582.24 197.338 581.991 197.723C581.742 198.107 581.414 198.514 581.007 198.944C580.6 199.374 580.091 199.855 579.48 200.386L576.087 203.355L575.714 202.863H582.771V204ZM592.331 204H584.323V203.033L588.208 199.64C588.774 199.153 589.237 198.724 589.599 198.35C589.961 197.977 590.244 197.638 590.448 197.332C590.663 197.016 590.81 196.705 590.889 196.399C590.979 196.094 591.024 195.76 591.024 195.398C591.024 194.584 590.793 193.939 590.329 193.464C589.865 192.989 589.232 192.752 588.429 192.752C587.592 192.752 586.913 193.035 586.393 193.6C585.884 194.166 585.618 194.918 585.596 195.856H584.374C584.408 195.008 584.595 194.267 584.934 193.634C585.273 193.001 585.743 192.509 586.342 192.158C586.953 191.807 587.654 191.632 588.446 191.632C589.215 191.632 589.882 191.79 590.448 192.107C591.024 192.412 591.471 192.842 591.788 193.396C592.105 193.939 592.263 194.584 592.263 195.331C592.263 195.76 592.206 196.173 592.093 196.569C591.98 196.954 591.799 197.338 591.55 197.723C591.302 198.107 590.974 198.514 590.566 198.944C590.159 199.374 589.65 199.855 589.04 200.386L585.646 203.355L585.273 202.863H592.331V204ZM595.375 204.187C595.092 204.187 594.843 204.085 594.628 203.881C594.414 203.678 594.306 203.434 594.306 203.152C594.306 202.858 594.414 202.609 594.628 202.405C594.843 202.19 595.092 202.083 595.375 202.083C595.669 202.083 595.918 202.19 596.121 202.405C596.336 202.609 596.444 202.858 596.444 203.152C596.444 203.434 596.336 203.678 596.121 203.881C595.918 204.085 595.669 204.187 595.375 204.187ZM602.082 204.203C601.268 204.203 600.561 204.045 599.961 203.728C599.362 203.4 598.898 202.942 598.57 202.354C598.242 201.766 598.078 201.076 598.078 200.284H599.3C599.3 201.155 599.548 201.84 600.046 202.337C600.555 202.835 601.239 203.084 602.099 203.084C602.71 203.084 603.241 202.959 603.694 202.711C604.146 202.45 604.497 202.094 604.745 201.642C604.994 201.189 605.119 200.663 605.119 200.064C605.119 199.498 605 198.989 604.762 198.537C604.525 198.073 604.18 197.706 603.728 197.434C603.286 197.163 602.744 197.027 602.099 197.027C601.545 197.027 601.019 197.146 600.521 197.383C600.035 197.61 599.628 197.904 599.3 198.266L598.333 197.96L599.792 191.853H605.662V192.972H600.063L600.843 192.277L599.605 197.383L599.198 197.332C599.548 196.88 599.995 196.535 600.538 196.298C601.081 196.06 601.658 195.941 602.269 195.941C603.105 195.941 603.829 196.128 604.44 196.501C605.051 196.863 605.52 197.355 605.848 197.977C606.188 198.588 606.357 199.272 606.357 200.03C606.357 200.844 606.176 201.568 605.814 202.202C605.452 202.824 604.949 203.316 604.304 203.678C603.671 204.028 602.93 204.203 602.082 204.203ZM613.822 194.635C613.822 195.212 613.692 195.732 613.432 196.196C613.183 196.648 612.833 197.004 612.38 197.265C611.939 197.513 611.43 197.638 610.853 197.638C610.276 197.638 609.762 197.513 609.309 197.265C608.868 197.004 608.518 196.648 608.257 196.196C607.997 195.732 607.867 195.212 607.867 194.635C607.867 194.047 607.997 193.527 608.257 193.074C608.518 192.622 608.868 192.265 609.309 192.005C609.762 191.745 610.276 191.615 610.853 191.615C611.43 191.615 611.939 191.745 612.38 192.005C612.833 192.265 613.183 192.622 613.432 193.074C613.692 193.527 613.822 194.047 613.822 194.635ZM612.804 194.635C612.804 194.035 612.623 193.549 612.261 193.176C611.899 192.791 611.43 192.599 610.853 192.599C610.276 192.599 609.801 192.791 609.428 193.176C609.066 193.549 608.885 194.035 608.885 194.635C608.885 195.234 609.066 195.726 609.428 196.111C609.801 196.484 610.276 196.671 610.853 196.671C611.43 196.671 611.899 196.484 612.261 196.111C612.623 195.726 612.804 195.234 612.804 194.635ZM619.981 191.853L610.751 204H609.53L618.742 191.853H619.981ZM621.66 201.218C621.66 201.794 621.53 202.315 621.27 202.778C621.021 203.231 620.671 203.587 620.218 203.847C619.777 204.096 619.268 204.22 618.691 204.22C618.114 204.22 617.6 204.096 617.147 203.847C616.706 203.587 616.356 203.231 616.096 202.778C615.835 202.315 615.705 201.794 615.705 201.218C615.705 200.629 615.835 200.109 616.096 199.657C616.356 199.204 616.706 198.848 617.147 198.588C617.6 198.328 618.114 198.198 618.691 198.198C619.268 198.198 619.777 198.328 620.218 198.588C620.671 198.848 621.021 199.204 621.27 199.657C621.53 200.109 621.66 200.629 621.66 201.218ZM620.642 201.218C620.642 200.618 620.461 200.132 620.099 199.759C619.737 199.374 619.268 199.182 618.691 199.182C618.114 199.182 617.639 199.374 617.266 199.759C616.904 200.132 616.723 200.618 616.723 201.218C616.723 201.806 616.904 202.292 617.266 202.677C617.639 203.05 618.114 203.236 618.691 203.236C619.268 203.236 619.737 203.05 620.099 202.677C620.461 202.292 620.642 201.806 620.642 201.218Z" fill="#1C1C1C"/>
<path d="M380.361 238.5C380.361 241.261 378.123 243.5 375.361 243.5C372.6 243.5 370.361 241.261 370.361 238.5C370.361 235.738 372.6 233.5 375.361 233.5C378.123 233.5 380.361 235.738 380.361 238.5Z" fill="#B9A9FF"/>
<path d="M409.006 243.176C407.908 243.176 406.948 242.931 406.126 242.44C405.305 241.939 404.665 241.245 404.206 240.36C403.748 239.464 403.518 238.419 403.518 237.224C403.518 236.029 403.753 234.984 404.222 234.088C404.692 233.192 405.342 232.493 406.174 231.992C407.017 231.491 407.988 231.24 409.086 231.24C409.961 231.24 410.75 231.405 411.454 231.736C412.158 232.056 412.745 232.509 413.214 233.096C413.684 233.683 413.988 234.371 414.126 235.16H412.446C412.233 234.403 411.822 233.811 411.214 233.384C410.606 232.957 409.881 232.744 409.038 232.744C408.26 232.744 407.577 232.931 406.99 233.304C406.414 233.667 405.966 234.184 405.646 234.856C405.326 235.517 405.166 236.301 405.166 237.208C405.166 238.104 405.326 238.888 405.646 239.56C405.966 240.232 406.42 240.755 407.006 241.128C407.593 241.491 408.27 241.672 409.038 241.672C409.892 241.672 410.628 241.464 411.246 241.048C411.876 240.621 412.297 240.051 412.51 239.336H414.174C414.014 240.104 413.689 240.776 413.198 241.352C412.718 241.928 412.116 242.376 411.39 242.696C410.676 243.016 409.881 243.176 409.006 243.176ZM420.321 235.112V236.488H419.649C418.934 236.488 418.369 236.696 417.953 237.112C417.548 237.517 417.345 238.099 417.345 238.856V243H415.841V235.192H417.249L417.377 236.76H417.233C417.34 236.248 417.596 235.832 418.001 235.512C418.406 235.181 418.913 235.016 419.521 235.016C419.66 235.016 419.788 235.027 419.905 235.048C420.033 235.059 420.172 235.08 420.321 235.112ZM427.578 235.176H428.906V243H427.53L427.402 241.576C427.136 242.077 426.757 242.477 426.266 242.776C425.786 243.064 425.221 243.208 424.57 243.208C423.802 243.208 423.146 243.027 422.602 242.664C422.058 242.301 421.642 241.805 421.354 241.176C421.077 240.547 420.938 239.832 420.938 239.032C420.938 238.232 421.088 237.528 421.386 236.92C421.696 236.301 422.122 235.821 422.666 235.48C423.221 235.128 423.872 234.952 424.618 234.952C425.216 234.952 425.776 235.091 426.298 235.368C426.821 235.635 427.21 236.051 427.466 236.616L427.578 235.176ZM427.37 239.096C427.37 238.552 427.269 238.072 427.066 237.656C426.874 237.24 426.597 236.915 426.234 236.68C425.872 236.445 425.429 236.328 424.906 236.328C424.405 236.328 423.968 236.445 423.594 236.68C423.221 236.915 422.938 237.24 422.746 237.656C422.554 238.072 422.458 238.552 422.458 239.096C422.458 239.629 422.554 240.104 422.746 240.52C422.938 240.936 423.216 241.261 423.578 241.496C423.941 241.731 424.378 241.848 424.89 241.848C425.402 241.848 425.84 241.731 426.202 241.496C426.576 241.261 426.864 240.936 427.066 240.52C427.269 240.104 427.37 239.629 427.37 239.096ZM434.055 243.192C433.298 243.192 432.647 243.021 432.103 242.68C431.559 242.328 431.138 241.843 430.839 241.224C430.551 240.605 430.407 239.901 430.407 239.112C430.407 238.312 430.556 237.603 430.855 236.984C431.154 236.355 431.58 235.859 432.135 235.496C432.69 235.133 433.351 234.952 434.119 234.952C434.727 234.952 435.266 235.08 435.735 235.336C436.215 235.581 436.588 235.949 436.855 236.44V231.224H438.343V243H436.999L436.871 241.576C436.615 242.099 436.236 242.499 435.735 242.776C435.244 243.053 434.684 243.192 434.055 243.192ZM434.359 241.832C434.871 241.832 435.308 241.715 435.671 241.48C436.044 241.245 436.332 240.92 436.535 240.504C436.738 240.088 436.839 239.608 436.839 239.064C436.839 238.52 436.738 238.045 436.535 237.64C436.332 237.224 436.044 236.899 435.671 236.664C435.308 236.429 434.871 236.312 434.359 236.312C433.847 236.312 433.41 236.435 433.047 236.68C432.684 236.915 432.407 237.24 432.215 237.656C432.023 238.061 431.927 238.531 431.927 239.064C431.927 239.608 432.023 240.088 432.215 240.504C432.407 240.92 432.684 241.245 433.047 241.48C433.41 241.715 433.847 241.832 434.359 241.832ZM442.049 243H440.545V231.224H442.049V243ZM447.639 243.192C446.881 243.192 446.209 243.021 445.623 242.68C445.036 242.328 444.577 241.848 444.247 241.24C443.916 240.621 443.751 239.907 443.751 239.096C443.751 238.275 443.911 237.555 444.231 236.936C444.561 236.317 445.009 235.832 445.575 235.48C446.151 235.128 446.817 234.952 447.575 234.952C448.321 234.952 448.967 235.112 449.511 235.432C450.065 235.752 450.492 236.2 450.791 236.776C451.1 237.352 451.255 238.029 451.255 238.808V239.368L444.551 239.384L444.583 238.376H449.751C449.751 237.725 449.553 237.203 449.159 236.808C448.764 236.413 448.236 236.216 447.575 236.216C447.073 236.216 446.641 236.328 446.279 236.552C445.927 236.765 445.655 237.085 445.463 237.512C445.281 237.928 445.191 238.429 445.191 239.016C445.191 239.955 445.404 240.68 445.831 241.192C446.257 241.693 446.871 241.944 447.671 241.944C448.257 241.944 448.737 241.827 449.111 241.592C449.484 241.357 449.735 241.016 449.863 240.568H451.271C451.079 241.4 450.668 242.045 450.039 242.504C449.409 242.963 448.609 243.192 447.639 243.192Z" fill="#1C1C1C"/>
<path d="M580.618 232.837L576.106 237.315L575.325 236.637L579.685 232.328L579.838 232.938H573.255V231.853H580.618V232.837ZM576.292 237.485H575.325V236.637C575.518 236.569 575.727 236.518 575.953 236.484C576.179 236.45 576.411 236.433 576.649 236.433C577.271 236.433 577.836 236.524 578.345 236.705C578.854 236.874 579.301 237.129 579.685 237.468C580.07 237.796 580.364 238.192 580.568 238.656C580.782 239.119 580.89 239.64 580.89 240.217C580.89 241.02 580.709 241.721 580.347 242.32C579.985 242.92 579.482 243.383 578.837 243.711C578.204 244.039 577.48 244.203 576.666 244.203C575.862 244.203 575.161 244.051 574.562 243.745C573.962 243.429 573.493 242.976 573.154 242.388C572.826 241.8 572.662 241.104 572.662 240.301H573.866C573.866 241.172 574.121 241.857 574.63 242.354C575.139 242.852 575.817 243.101 576.666 243.101C577.582 243.101 578.306 242.835 578.837 242.303C579.38 241.772 579.651 241.065 579.651 240.183C579.651 239.346 579.363 238.69 578.786 238.215C578.209 237.728 577.378 237.485 576.292 237.485ZM582.576 237.926C582.576 236.659 582.768 235.557 583.152 234.618C583.548 233.679 584.108 232.944 584.832 232.412C585.567 231.881 586.438 231.615 587.445 231.615C588.451 231.615 589.317 231.881 590.04 232.412C590.764 232.944 591.319 233.679 591.703 234.618C592.099 235.557 592.297 236.659 592.297 237.926C592.297 239.193 592.105 240.296 591.72 241.235C591.335 242.173 590.781 242.908 590.057 243.44C589.334 243.96 588.463 244.22 587.445 244.22C586.427 244.22 585.55 243.96 584.815 243.44C584.091 242.908 583.537 242.173 583.152 241.235C582.768 240.296 582.576 239.193 582.576 237.926ZM583.78 237.926C583.78 238.978 583.922 239.894 584.204 240.675C584.498 241.455 584.917 242.06 585.46 242.49C586.003 242.908 586.664 243.118 587.445 243.118C588.214 243.118 588.87 242.908 589.413 242.49C589.967 242.06 590.385 241.455 590.668 240.675C590.962 239.894 591.109 238.978 591.109 237.926C591.109 236.863 590.962 235.947 590.668 235.178C590.385 234.397 589.967 233.798 589.413 233.379C588.87 232.95 588.214 232.735 587.445 232.735C586.664 232.735 586.003 232.95 585.46 233.379C584.917 233.798 584.498 234.397 584.204 235.178C583.922 235.947 583.78 236.863 583.78 237.926ZM594.667 244.187C594.384 244.187 594.136 244.085 593.921 243.881C593.706 243.678 593.598 243.434 593.598 243.152C593.598 242.858 593.706 242.609 593.921 242.405C594.136 242.19 594.384 242.083 594.667 242.083C594.961 242.083 595.21 242.19 595.414 242.405C595.629 242.609 595.736 242.858 595.736 243.152C595.736 243.434 595.629 243.678 595.414 243.881C595.21 244.085 594.961 244.187 594.667 244.187ZM597.485 240.692C597.485 239.855 597.745 239.136 598.266 238.537C598.786 237.938 599.481 237.553 600.352 237.383L600.369 237.706C599.589 237.502 598.984 237.146 598.554 236.637C598.124 236.117 597.909 235.495 597.909 234.771C597.909 234.149 598.073 233.606 598.401 233.142C598.729 232.667 599.187 232.299 599.775 232.039C600.364 231.768 601.048 231.632 601.828 231.632C602.597 231.632 603.27 231.768 603.847 232.039C604.424 232.299 604.871 232.667 605.187 233.142C605.515 233.606 605.679 234.154 605.679 234.788C605.679 235.511 605.465 236.134 605.035 236.654C604.616 237.163 604.023 237.508 603.253 237.689L603.236 237.4C603.813 237.479 604.317 237.677 604.746 237.994C605.187 238.299 605.527 238.684 605.764 239.148C606.013 239.611 606.138 240.132 606.138 240.709C606.138 241.399 605.951 242.009 605.578 242.541C605.216 243.061 604.712 243.468 604.068 243.762C603.423 244.056 602.671 244.203 601.811 244.203C600.952 244.203 600.194 244.056 599.538 243.762C598.893 243.468 598.39 243.055 598.028 242.524C597.666 241.992 597.485 241.382 597.485 240.692ZM598.69 240.59C598.69 241.087 598.82 241.529 599.08 241.913C599.34 242.286 599.702 242.58 600.166 242.795C600.641 242.999 601.195 243.101 601.828 243.101C602.45 243.101 602.993 242.999 603.457 242.795C603.921 242.58 604.283 242.286 604.543 241.913C604.803 241.54 604.933 241.099 604.933 240.59C604.933 239.843 604.645 239.25 604.068 238.808C603.502 238.356 602.744 238.13 601.794 238.13C600.856 238.13 600.103 238.356 599.538 238.808C598.972 239.25 598.69 239.843 598.69 240.59ZM599.063 234.805C599.063 235.472 599.312 236.015 599.809 236.433C600.318 236.84 600.986 237.044 601.811 237.044C602.637 237.044 603.293 236.846 603.779 236.45C604.277 236.043 604.526 235.506 604.526 234.839C604.526 234.194 604.277 233.679 603.779 233.295C603.293 232.91 602.637 232.718 601.811 232.718C600.986 232.718 600.318 232.91 599.809 233.295C599.312 233.668 599.063 234.171 599.063 234.805ZM613.777 234.635C613.777 235.212 613.647 235.732 613.387 236.196C613.138 236.648 612.788 237.004 612.335 237.265C611.894 237.513 611.385 237.638 610.808 237.638C610.231 237.638 609.717 237.513 609.264 237.265C608.823 237.004 608.473 236.648 608.212 236.196C607.952 235.732 607.822 235.212 607.822 234.635C607.822 234.047 607.952 233.527 608.212 233.074C608.473 232.622 608.823 232.265 609.264 232.005C609.717 231.745 610.231 231.615 610.808 231.615C611.385 231.615 611.894 231.745 612.335 232.005C612.788 232.265 613.138 232.622 613.387 233.074C613.647 233.527 613.777 234.047 613.777 234.635ZM612.759 234.635C612.759 234.035 612.578 233.549 612.216 233.176C611.854 232.791 611.385 232.599 610.808 232.599C610.231 232.599 609.756 232.791 609.383 233.176C609.021 233.549 608.84 234.035 608.84 234.635C608.84 235.234 609.021 235.726 609.383 236.111C609.756 236.484 610.231 236.671 610.808 236.671C611.385 236.671 611.854 236.484 612.216 236.111C612.578 235.726 612.759 235.234 612.759 234.635ZM619.936 231.853L610.706 244H609.485L618.697 231.853H619.936ZM621.615 241.218C621.615 241.794 621.485 242.315 621.225 242.778C620.976 243.231 620.626 243.587 620.173 243.847C619.732 244.096 619.223 244.22 618.646 244.22C618.069 244.22 617.555 244.096 617.102 243.847C616.661 243.587 616.311 243.231 616.051 242.778C615.79 242.315 615.66 241.794 615.66 241.218C615.66 240.629 615.79 240.109 616.051 239.657C616.311 239.204 616.661 238.848 617.102 238.588C617.555 238.328 618.069 238.198 618.646 238.198C619.223 238.198 619.732 238.328 620.173 238.588C620.626 238.848 620.976 239.204 621.225 239.657C621.485 240.109 621.615 240.629 621.615 241.218ZM620.597 241.218C620.597 240.618 620.416 240.132 620.054 239.759C619.692 239.374 619.223 239.182 618.646 239.182C618.069 239.182 617.594 239.374 617.221 239.759C616.859 240.132 616.678 240.618 616.678 241.218C616.678 241.806 616.859 242.292 617.221 242.677C617.594 243.05 618.069 243.236 618.646 243.236C619.223 243.236 619.692 243.05 620.054 242.677C620.416 242.292 620.597 241.806 620.597 241.218Z" fill="#1C1C1C"/>
<path d="M380.361 278.5C380.361 281.261 378.123 283.5 375.361 283.5C372.6 283.5 370.361 281.261 370.361 278.5C370.361 275.738 372.6 273.5 375.361 273.5C378.123 273.5 380.361 275.738 380.361 278.5Z" fill="#FFCE46"/>
<path d="M404.686 283H403.054L407.278 271.432H409.022L413.262 283H411.614L410.574 280.12H405.71L404.686 283ZM407.95 273.928L406.19 278.76H410.11L408.334 273.928C408.302 273.811 408.265 273.693 408.222 273.576C408.18 273.448 408.153 273.341 408.142 273.256C408.121 273.341 408.094 273.448 408.062 273.576C408.03 273.693 407.993 273.811 407.95 273.928ZM416.048 283H414.544V275.176H415.904L416.064 276.376C416.309 275.928 416.661 275.581 417.12 275.336C417.589 275.08 418.101 274.952 418.656 274.952C419.68 274.952 420.437 275.245 420.928 275.832C421.419 276.419 421.664 277.213 421.664 278.216V283H420.16V278.552C420.16 277.763 419.989 277.197 419.648 276.856C419.307 276.504 418.848 276.328 418.272 276.328C417.568 276.328 417.019 276.557 416.624 277.016C416.24 277.475 416.048 278.088 416.048 278.856V283ZM422.915 275.176H427.491V276.44H422.915V275.176ZM425.955 283H424.451V272.728H425.955V283ZM430.377 283H428.873V271.224H430.377V283ZM435.967 283.192C435.21 283.192 434.538 283.021 433.951 282.68C433.364 282.328 432.906 281.848 432.575 281.24C432.244 280.621 432.079 279.907 432.079 279.096C432.079 278.275 432.239 277.555 432.559 276.936C432.89 276.317 433.338 275.832 433.903 275.48C434.479 275.128 435.146 274.952 435.903 274.952C436.65 274.952 437.295 275.112 437.839 275.432C438.394 275.752 438.82 276.2 439.119 276.776C439.428 277.352 439.583 278.029 439.583 278.808V279.368L432.879 279.384L432.911 278.376H438.079C438.079 277.725 437.882 277.203 437.487 276.808C437.092 276.413 436.564 276.216 435.903 276.216C435.402 276.216 434.97 276.328 434.607 276.552C434.255 276.765 433.983 277.085 433.791 277.512C433.61 277.928 433.519 278.429 433.519 279.016C433.519 279.955 433.732 280.68 434.159 281.192C434.586 281.693 435.199 281.944 435.999 281.944C436.586 281.944 437.066 281.827 437.439 281.592C437.812 281.357 438.063 281.016 438.191 280.568H439.599C439.407 281.4 438.996 282.045 438.367 282.504C437.738 282.963 436.938 283.192 435.967 283.192ZM445.743 275.112V276.488H445.071C444.356 276.488 443.791 276.696 443.375 277.112C442.969 277.517 442.767 278.099 442.767 278.856V283H441.263V275.192H442.671L442.799 276.76H442.655C442.761 276.248 443.017 275.832 443.423 275.512C443.828 275.181 444.335 275.016 444.943 275.016C445.081 275.016 445.209 275.027 445.327 275.048C445.455 275.059 445.593 275.08 445.743 275.112Z" fill="#1C1C1C"/>
<path d="M588.865 280.692C588.865 279.855 589.125 279.136 589.646 278.537C590.166 277.938 590.862 277.553 591.732 277.383L591.749 277.706C590.969 277.502 590.364 277.146 589.934 276.637C589.504 276.117 589.289 275.495 589.289 274.771C589.289 274.149 589.453 273.606 589.781 273.142C590.109 272.667 590.567 272.299 591.156 272.039C591.744 271.768 592.428 271.632 593.208 271.632C593.978 271.632 594.65 271.768 595.227 272.039C595.804 272.299 596.251 272.667 596.568 273.142C596.896 273.606 597.06 274.154 597.06 274.788C597.06 275.511 596.845 276.134 596.415 276.654C595.996 277.163 595.403 277.508 594.634 277.689L594.617 277.4C595.193 277.479 595.697 277.677 596.126 277.994C596.568 278.299 596.907 278.684 597.144 279.148C597.393 279.611 597.518 280.132 597.518 280.709C597.518 281.399 597.331 282.009 596.958 282.541C596.596 283.061 596.093 283.468 595.448 283.762C594.803 284.056 594.051 284.203 593.191 284.203C592.332 284.203 591.574 284.056 590.918 283.762C590.273 283.468 589.77 283.055 589.408 282.524C589.046 281.992 588.865 281.382 588.865 280.692ZM590.07 280.59C590.07 281.087 590.2 281.529 590.46 281.913C590.72 282.286 591.082 282.58 591.546 282.795C592.021 282.999 592.575 283.101 593.208 283.101C593.83 283.101 594.373 282.999 594.837 282.795C595.301 282.58 595.663 282.286 595.923 281.913C596.183 281.54 596.313 281.099 596.313 280.59C596.313 279.843 596.025 279.25 595.448 278.808C594.882 278.356 594.125 278.13 593.174 278.13C592.236 278.13 591.484 278.356 590.918 278.808C590.353 279.25 590.07 279.843 590.07 280.59ZM590.443 274.805C590.443 275.472 590.692 276.015 591.19 276.433C591.698 276.84 592.366 277.044 593.191 277.044C594.017 277.044 594.673 276.846 595.159 276.45C595.657 276.043 595.906 275.506 595.906 274.839C595.906 274.194 595.657 273.679 595.159 273.295C594.673 272.91 594.017 272.718 593.191 272.718C592.366 272.718 591.698 272.91 591.19 273.295C590.692 273.668 590.443 274.171 590.443 274.805ZM600.345 284.187C600.063 284.187 599.814 284.085 599.599 283.881C599.384 283.678 599.277 283.434 599.277 283.152C599.277 282.858 599.384 282.609 599.599 282.405C599.814 282.19 600.063 282.083 600.345 282.083C600.64 282.083 600.888 282.19 601.092 282.405C601.307 282.609 601.414 282.858 601.414 283.152C601.414 283.434 601.307 283.678 601.092 283.881C600.888 284.085 600.64 284.187 600.345 284.187ZM604.54 272.955H602.063V271.853H605.711V284H604.54V272.955ZM613.905 274.635C613.905 275.212 613.775 275.732 613.515 276.196C613.266 276.648 612.915 277.004 612.463 277.265C612.022 277.513 611.513 277.638 610.936 277.638C610.359 277.638 609.845 277.513 609.392 277.265C608.951 277.004 608.601 276.648 608.34 276.196C608.08 275.732 607.95 275.212 607.95 274.635C607.95 274.047 608.08 273.527 608.34 273.074C608.601 272.622 608.951 272.265 609.392 272.005C609.845 271.745 610.359 271.615 610.936 271.615C611.513 271.615 612.022 271.745 612.463 272.005C612.915 272.265 613.266 272.622 613.515 273.074C613.775 273.527 613.905 274.047 613.905 274.635ZM612.887 274.635C612.887 274.035 612.706 273.549 612.344 273.176C611.982 272.791 611.513 272.599 610.936 272.599C610.359 272.599 609.884 272.791 609.511 273.176C609.149 273.549 608.968 274.035 608.968 274.635C608.968 275.234 609.149 275.726 609.511 276.111C609.884 276.484 610.359 276.671 610.936 276.671C611.513 276.671 611.982 276.484 612.344 276.111C612.706 275.726 612.887 275.234 612.887 274.635ZM620.064 271.853L610.834 284H609.613L618.825 271.853H620.064ZM621.743 281.218C621.743 281.794 621.613 282.315 621.353 282.778C621.104 283.231 620.754 283.587 620.301 283.847C619.86 284.096 619.351 284.22 618.774 284.22C618.197 284.22 617.683 284.096 617.23 283.847C616.789 283.587 616.439 283.231 616.179 282.778C615.918 282.315 615.788 281.794 615.788 281.218C615.788 280.629 615.918 280.109 616.179 279.657C616.439 279.204 616.789 278.848 617.23 278.588C617.683 278.328 618.197 278.198 618.774 278.198C619.351 278.198 619.86 278.328 620.301 278.588C620.754 278.848 621.104 279.204 621.353 279.657C621.613 280.109 621.743 280.629 621.743 281.218ZM620.725 281.218C620.725 280.618 620.544 280.132 620.182 279.759C619.82 279.374 619.351 279.182 618.774 279.182C618.197 279.182 617.722 279.374 617.349 279.759C616.987 280.132 616.806 280.618 616.806 281.218C616.806 281.806 616.987 282.292 617.349 282.677C617.722 283.05 618.197 283.236 618.774 283.236C619.351 283.236 619.82 283.05 620.182 282.677C620.544 282.292 620.725 281.806 620.725 281.218Z" fill="#1C1C1C"/>
</g>
<defs>
<filter id="filter0_dd_45_29386" x="0" y="0" width="659" height="396" filterUnits="userSpaceOnUse" color-interpolation-filters="sRGB">
<feFlood flood-opacity="0" result="BackgroundImageFix"/>
<feColorMatrix in="SourceAlpha" type="matrix" values="0 0 0 0 0 0 0 0 0 0 0 0 0 0 0 0 0 0 127 0" result="hardAlpha"/>
<feMorphology radius="5" operator="erode" in="SourceAlpha" result="effect1_dropShadow_45_29386"/>
<feOffset dy="5"/>
<feGaussianBlur stdDeviation="6.5"/>
<feColorMatrix type="matrix" values="0 0 0 0 0.0666667 0 0 0 0 0.0941176 0 0 0 0 0.152941 0 0 0 0.05 0"/>
<feBlend mode="normal" in2="BackgroundImageFix" result="effect1_dropShadow_45_29386"/>
<feColorMatrix in="SourceAlpha" type="matrix" values="0 0 0 0 0 0 0 0 0 0 0 0 0 0 0 0 0 0 127 0" result="hardAlpha"/>
<feMorphology radius="1" operator="erode" in="SourceAlpha" result="effect2_dropShadow_45_29386"/>
<feOffset dy="2"/>
<feGaussianBlur stdDeviation="2"/>
<feComposite in2="hardAlpha" operator="out"/>
<feColorMatrix type="matrix" values="0 0 0 0 0.0666667 0 0 0 0 0.0941176 0 0 0 0 0.152941 0 0 0 0.02 0"/>
<feBlend mode="normal" in2="effect1_dropShadow_45_29386" result="effect2_dropShadow_45_29386"/>
<feBlend mode="normal" in="SourceGraphic" in2="effect2_dropShadow_45_29386" result="shape"/>
</filter>
</defs>
</svg>
