<svg width="814" height="250" viewBox="0 0 814 250" fill="none" xmlns="http://www.w3.org/2000/svg">
<path fill-rule="evenodd" clip-rule="evenodd" d="M337.995 41.5257C330.193 32.8086 316.833 32.0957 308.156 39.9335C299.478 47.7712 298.768 61.1915 306.571 69.9086C319.707 84.585 327.674 103.948 327.674 125.23C327.674 156.708 310.184 184.082 284.434 198.081C292.085 201.624 298.185 208.409 300.589 217.209C302.617 224.633 301.655 232.172 298.436 238.533C340.694 218.488 369.933 175.289 369.933 125.23C369.933 93.0671 357.835 63.692 337.995 41.5257Z" fill="#76D6FF"/>
<path d="M196.998 57.2763C210.337 47.9296 226.536 42.451 244.072 42.451C261.608 42.451 277.807 47.9296 291.146 57.2763C291.462 57.4977 291.782 57.7093 292.105 57.911C291.459 49.0596 294.751 40.0132 301.829 33.62C306.87 29.0669 313.039 26.5749 319.313 26.0894C318.168 24.7427 316.835 23.5191 315.322 22.4586C295.121 8.30391 270.53 0 244.072 0C217.614 0 193.023 8.3039 172.822 22.4586C163.251 29.165 160.904 42.3958 167.58 52.0105C174.257 61.6251 187.427 63.9827 196.998 57.2763Z" fill="#B9A9FF"/>
<path fill-rule="evenodd" clip-rule="evenodd" d="M155.373 38.2216C154.029 39.1512 152.771 40.2531 151.633 41.5256C142.113 52.1616 134.371 64.4582 128.894 77.9447C124.485 88.7985 129.67 101.187 140.475 105.616C151.279 110.044 163.612 104.836 168.021 93.982C171.631 85.0929 176.745 76.9602 183.057 69.9086C183.165 69.7881 183.271 69.6667 183.375 69.5445C174.578 69.0793 166.078 64.6884 160.648 56.8677C156.71 51.197 155.015 44.6278 155.373 38.2216Z" fill="#FFCE46"/>
<path fill-rule="evenodd" clip-rule="evenodd" d="M123.708 98.4065C126.736 105.008 132.168 110.514 139.395 113.477C147.346 116.736 155.887 116.267 163.098 112.883C162.501 116.9 162.19 121.022 162.19 125.23C162.19 152.008 174.847 175.817 194.48 190.947C195.524 191.446 196.541 192.037 197.521 192.724C210.86 202.07 227.059 207.549 244.595 207.549C252.197 207.549 259.527 206.52 266.47 204.606C277.723 201.503 289.349 208.152 292.438 219.457C295.527 230.761 288.908 242.44 277.655 245.543C267.102 248.453 256.011 250 244.595 250C236.88 250 229.324 249.294 221.99 247.943C222.146 248.128 222.304 248.312 222.465 248.493C164.172 238.003 119.932 186.807 119.932 125.23C119.932 118.291 120.496 111.469 121.584 104.811C121.96 102.513 122.689 100.363 123.708 98.4065Z" fill="#63F2B2"/>
<path d="M451.43 65.4999C451.43 68.2613 449.191 70.4999 446.43 70.4999C443.668 70.4999 441.43 68.2613 441.43 65.4999C441.43 62.7385 443.668 60.4999 446.43 60.4999C449.191 60.4999 451.43 62.7385 451.43 65.4999Z" fill="#76D6FF"/>
<path d="M476.475 69.9999H475.323V58.5439H476.475V63.6479H482.667V58.5439H483.803V69.9999H482.667V64.7199H476.475V69.9999ZM492.476 62.2559H493.452V69.9999H492.444L492.332 68.4159C492.055 68.9919 491.66 69.4345 491.148 69.7439C490.636 70.0425 490.055 70.1919 489.404 70.1919C488.647 70.1919 488.001 70.0159 487.468 69.6639C486.935 69.3012 486.524 68.8105 486.236 68.1919C485.959 67.5732 485.82 66.8745 485.82 66.0959C485.82 65.3172 485.964 64.6239 486.252 64.0159C486.551 63.4079 486.972 62.9279 487.516 62.5759C488.071 62.2239 488.716 62.0479 489.452 62.0479C490.071 62.0479 490.647 62.1919 491.18 62.4799C491.713 62.7679 492.113 63.2319 492.38 63.8719L492.476 62.2559ZM492.284 66.1279C492.284 65.5305 492.177 65.0025 491.964 64.5439C491.761 64.0745 491.463 63.7119 491.068 63.4559C490.673 63.1892 490.193 63.0559 489.628 63.0559C489.063 63.0559 488.577 63.1892 488.172 63.4559C487.777 63.7119 487.473 64.0745 487.26 64.5439C487.047 65.0025 486.94 65.5305 486.94 66.1279C486.94 66.7252 487.041 67.2585 487.244 67.7279C487.457 68.1865 487.761 68.5492 488.156 68.8159C488.561 69.0719 489.041 69.1999 489.596 69.1999C490.172 69.1999 490.657 69.0719 491.052 68.8159C491.447 68.5492 491.751 68.1865 491.964 67.7279C492.177 67.2585 492.284 66.7252 492.284 66.1279ZM499.803 62.1599V63.1519H499.195C498.48 63.1519 497.909 63.3705 497.483 63.8079C497.067 64.2452 496.859 64.8372 496.859 65.5839V69.9999H495.755V62.2559H496.795L496.891 63.7759H496.779C496.885 63.2745 497.147 62.8692 497.563 62.5599C497.979 62.2399 498.485 62.0799 499.083 62.0799C499.2 62.0799 499.317 62.0852 499.435 62.0959C499.552 62.1065 499.675 62.1279 499.803 62.1599ZM501.27 69.9999V62.2559H502.374V69.9999H501.27ZM501.814 60.1279C501.59 60.1279 501.398 60.0479 501.238 59.8879C501.078 59.7279 500.998 59.5359 500.998 59.3119C500.998 59.0879 501.078 58.8959 501.238 58.7359C501.398 58.5652 501.59 58.4799 501.814 58.4799C502.038 58.4799 502.23 58.5652 502.39 58.7359C502.561 58.8959 502.646 59.0879 502.646 59.3119C502.646 59.5359 502.561 59.7279 502.39 59.8879C502.23 60.0479 502.038 60.1279 501.814 60.1279ZM504.02 67.8239H505.076C505.076 68.2719 505.236 68.6292 505.556 68.8959C505.876 69.1519 506.303 69.2799 506.836 69.2799C507.434 69.2799 507.898 69.1625 508.228 68.9279C508.57 68.6825 508.74 68.3519 508.74 67.9359C508.74 67.6159 508.65 67.3599 508.468 67.1679C508.287 66.9759 507.967 66.8212 507.508 66.7039L506.18 66.3679C505.508 66.1972 505.007 65.9359 504.676 65.5839C504.346 65.2319 504.18 64.7945 504.18 64.2719C504.18 63.8239 504.298 63.4345 504.532 63.1039C504.767 62.7625 505.092 62.5012 505.508 62.3199C505.935 62.1385 506.426 62.0479 506.98 62.0479C507.524 62.0479 507.999 62.1439 508.404 62.3359C508.81 62.5279 509.124 62.7999 509.348 63.1519C509.583 63.4932 509.706 63.9039 509.716 64.3839H508.644C508.634 63.9252 508.479 63.5732 508.18 63.3279C507.882 63.0825 507.471 62.9599 506.948 62.9599C506.404 62.9599 505.983 63.0719 505.684 63.2959C505.396 63.5199 505.252 63.8399 505.252 64.2559C505.252 64.8532 505.674 65.2585 506.516 65.4719L507.844 65.8079C508.516 65.9785 509.007 66.2292 509.316 66.5599C509.636 66.8905 509.796 67.3332 509.796 67.8879C509.796 68.3465 509.674 68.7519 509.428 69.1039C509.183 69.4559 508.836 69.7279 508.388 69.9199C507.951 70.1012 507.439 70.1919 506.852 70.1919C505.988 70.1919 505.3 69.9785 504.788 69.5519C504.276 69.1145 504.02 68.5385 504.02 67.8239Z" fill="#1C1C1C"/>
<path d="M652.687 59.8366L648.174 64.3155L647.394 63.6368L651.754 59.3276L651.906 59.9384H645.324V58.8526H652.687V59.8366ZM648.361 64.4851H647.394V63.6368C647.586 63.569 647.795 63.5181 648.021 63.4842C648.248 63.4502 648.479 63.4333 648.717 63.4333C649.339 63.4333 649.904 63.5237 650.413 63.7047C650.922 63.8744 651.369 64.1288 651.754 64.4682C652.138 64.7962 652.432 65.192 652.636 65.6557C652.851 66.1195 652.958 66.6397 652.958 67.2166C652.958 68.0196 652.777 68.7208 652.415 69.3203C652.053 69.9197 651.55 70.3835 650.905 70.7115C650.272 71.0395 649.548 71.2035 648.734 71.2035C647.931 71.2035 647.23 71.0508 646.63 70.7454C646.031 70.4287 645.561 69.9763 645.222 69.3882C644.894 68.8 644.73 68.1044 644.73 67.3014H645.935C645.935 68.1723 646.189 68.8566 646.698 69.3542C647.207 69.8519 647.886 70.1007 648.734 70.1007C649.65 70.1007 650.374 69.8349 650.905 69.3033C651.448 68.7717 651.72 68.0648 651.72 67.1826C651.72 66.3457 651.431 65.6897 650.855 65.2146C650.278 64.7283 649.446 64.4851 648.361 64.4851ZM654.576 67.6916C654.576 66.8546 654.836 66.1364 655.357 65.537C655.877 64.9375 656.572 64.553 657.443 64.3833L657.46 64.7057C656.68 64.5021 656.075 64.1458 655.645 63.6368C655.215 63.1166 655 62.4945 655 61.7706C655 61.1486 655.164 60.6057 655.492 60.1419C655.82 59.6669 656.278 59.2993 656.866 59.0392C657.455 58.7677 658.139 58.632 658.919 58.632C659.688 58.632 660.361 58.7677 660.938 59.0392C661.515 59.2993 661.962 59.6669 662.278 60.1419C662.606 60.6057 662.77 61.1542 662.77 61.7876C662.77 62.5115 662.556 63.1335 662.126 63.6538C661.707 64.1628 661.113 64.5077 660.344 64.6887L660.327 64.4003C660.904 64.4795 661.408 64.6774 661.837 64.9941C662.278 65.2995 662.618 65.684 662.855 66.1477C663.104 66.6115 663.229 67.1317 663.229 67.7086C663.229 68.3985 663.042 69.0093 662.669 69.5408C662.307 70.0611 661.803 70.4683 661.159 70.7624C660.514 71.0564 659.762 71.2035 658.902 71.2035C658.043 71.2035 657.285 71.0564 656.629 70.7624C655.984 70.4683 655.481 70.0555 655.119 69.5239C654.757 68.9923 654.576 68.3815 654.576 67.6916ZM655.781 67.5898C655.781 68.0875 655.911 68.5286 656.171 68.9131C656.431 69.2864 656.793 69.5804 657.257 69.7953C657.732 69.9989 658.286 70.1007 658.919 70.1007C659.541 70.1007 660.084 69.9989 660.548 69.7953C661.012 69.5804 661.374 69.2864 661.634 68.9131C661.894 68.5399 662.024 68.0988 662.024 67.5898C662.024 66.8433 661.736 66.2495 661.159 65.8084C660.593 65.356 659.835 65.1298 658.885 65.1298C657.947 65.1298 657.194 65.356 656.629 65.8084C656.063 66.2495 655.781 66.8433 655.781 67.5898ZM656.154 61.8046C656.154 62.4719 656.403 63.0148 656.9 63.4333C657.409 63.8404 658.077 64.044 658.902 64.044C659.728 64.044 660.384 63.8461 660.87 63.4502C661.368 63.043 661.617 62.5058 661.617 61.8385C661.617 61.1938 661.368 60.6792 660.87 60.2946C660.384 59.9101 659.728 59.7178 658.902 59.7178C658.077 59.7178 657.409 59.9101 656.9 60.2946C656.403 60.6679 656.154 61.1712 656.154 61.8046ZM666.056 71.1865C665.774 71.1865 665.525 71.0847 665.31 70.8811C665.095 70.6775 664.988 70.4344 664.988 70.1516C664.988 69.8575 665.095 69.6087 665.31 69.4051C665.525 69.1902 665.774 69.0828 666.056 69.0828C666.35 69.0828 666.599 69.1902 666.803 69.4051C667.018 69.6087 667.125 69.8575 667.125 70.1516C667.125 70.4344 667.018 70.6775 666.803 70.8811C666.599 71.0847 666.35 71.1865 666.056 71.1865ZM670.068 62.9413L673.105 58.8526H674.53L671.018 63.5181L670.797 63.4163C671.193 63.1448 671.566 62.9526 671.917 62.8395C672.268 62.7264 672.63 62.6698 673.003 62.6698C673.851 62.6698 674.592 62.8564 675.225 63.2297C675.859 63.6029 676.345 64.1119 676.684 64.7566C677.035 65.3899 677.21 66.1025 677.21 66.8942C677.21 67.7199 677.018 68.4607 676.633 69.1167C676.26 69.7614 675.746 70.2704 675.09 70.6436C674.445 71.0168 673.715 71.2035 672.901 71.2035C672.087 71.2035 671.346 71.0168 670.679 70.6436C670.023 70.2591 669.502 69.7444 669.118 69.0997C668.733 68.4437 668.541 67.7086 668.541 66.8942C668.541 66.4192 668.586 65.9837 668.677 65.5879C668.778 65.1807 668.937 64.7679 669.152 64.3494C669.378 63.9309 669.683 63.4615 670.068 62.9413ZM669.779 66.9112C669.779 67.5219 669.909 68.0705 670.17 68.5568C670.43 69.0319 670.797 69.4108 671.272 69.6935C671.747 69.965 672.29 70.1007 672.901 70.1007C673.5 70.1007 674.032 69.965 674.496 69.6935C674.959 69.4108 675.321 69.0319 675.582 68.5568C675.853 68.0705 675.989 67.5219 675.989 66.9112C675.989 66.2891 675.853 65.7406 675.582 65.2655C675.321 64.7905 674.959 64.4173 674.496 64.1458C674.032 63.8744 673.5 63.7386 672.901 63.7386C672.29 63.7386 671.747 63.8744 671.272 64.1458C670.797 64.4173 670.43 64.7905 670.17 65.2655C669.909 65.7406 669.779 66.2891 669.779 66.9112ZM684.752 61.6349C684.752 62.2117 684.622 62.732 684.362 63.1957C684.113 63.6482 683.762 64.0044 683.31 64.2646C682.869 64.5134 682.36 64.6378 681.783 64.6378C681.206 64.6378 680.692 64.5134 680.239 64.2646C679.798 64.0044 679.448 63.6482 679.187 63.1957C678.927 62.732 678.797 62.2117 678.797 61.6349C678.797 61.0468 678.927 60.5265 679.187 60.0741C679.448 59.6217 679.798 59.2654 680.239 59.0053C680.692 58.7451 681.206 58.6151 681.783 58.6151C682.36 58.6151 682.869 58.7451 683.31 59.0053C683.762 59.2654 684.113 59.6217 684.362 60.0741C684.622 60.5265 684.752 61.0468 684.752 61.6349ZM683.734 61.6349C683.734 61.0355 683.553 60.5491 683.191 60.1759C682.829 59.7913 682.36 59.599 681.783 59.599C681.206 59.599 680.731 59.7913 680.358 60.1759C679.996 60.5491 679.815 61.0355 679.815 61.6349C679.815 62.2344 679.996 62.7264 680.358 63.1109C680.731 63.4842 681.206 63.6708 681.783 63.6708C682.36 63.6708 682.829 63.4842 683.191 63.1109C683.553 62.7264 683.734 62.2344 683.734 61.6349ZM690.911 58.8526L681.681 70.9999H680.46L689.672 58.8526H690.911ZM692.59 68.2175C692.59 68.7944 692.46 69.3146 692.2 69.7784C691.951 70.2308 691.6 70.5871 691.148 70.8472C690.707 71.096 690.198 71.2204 689.621 71.2204C689.044 71.2204 688.53 71.096 688.077 70.8472C687.636 70.5871 687.286 70.2308 687.025 69.7784C686.765 69.3146 686.635 68.7944 686.635 68.2175C686.635 67.6294 686.765 67.1091 687.025 66.6567C687.286 66.2043 687.636 65.848 688.077 65.5879C688.53 65.3277 689.044 65.1977 689.621 65.1977C690.198 65.1977 690.707 65.3277 691.148 65.5879C691.6 65.848 691.951 66.2043 692.2 66.6567C692.46 67.1091 692.59 67.6294 692.59 68.2175ZM691.572 68.2175C691.572 67.6181 691.391 67.1317 691.029 66.7585C690.667 66.3739 690.198 66.1817 689.621 66.1817C689.044 66.1817 688.569 66.3739 688.196 66.7585C687.834 67.1317 687.653 67.6181 687.653 68.2175C687.653 68.8057 687.834 69.292 688.196 69.6766C688.569 70.0498 689.044 70.2364 689.621 70.2364C690.198 70.2364 690.667 70.0498 691.029 69.6766C691.391 69.292 691.572 68.8057 691.572 68.2175Z" fill="#1C1C1C"/>
<path d="M451.43 105.5C451.43 108.261 449.191 110.5 446.43 110.5C443.668 110.5 441.43 108.261 441.43 105.5C441.43 102.738 443.668 100.5 446.43 100.5C449.191 100.5 451.43 102.738 451.43 105.5Z" fill="#63F2B2"/>
<path d="M483.371 98.5439L476.283 107.392V105.68L481.995 98.5439H483.371ZM476.475 98.5439V110H475.323V98.5439H476.475ZM478.651 104.224L479.419 103.28L483.435 110H482.091L478.651 104.224ZM484.942 110V102.256H486.046V110H484.942ZM485.486 100.128C485.262 100.128 485.07 100.048 484.91 99.8879C484.75 99.7279 484.67 99.5359 484.67 99.3119C484.67 99.0879 484.75 98.8959 484.91 98.7359C485.07 98.5652 485.262 98.4799 485.486 98.4799C485.71 98.4799 485.902 98.5652 486.062 98.7359C486.233 98.8959 486.318 99.0879 486.318 99.3119C486.318 99.5359 486.233 99.7279 486.062 99.8879C485.902 100.048 485.71 100.128 485.486 100.128ZM492.396 102.16V103.152H491.788C491.074 103.152 490.503 103.371 490.076 103.808C489.66 104.245 489.452 104.837 489.452 105.584V110H488.348V102.256H489.388L489.484 103.776H489.372C489.479 103.275 489.74 102.869 490.156 102.56C490.572 102.24 491.079 102.08 491.676 102.08C491.794 102.08 491.911 102.085 492.028 102.096C492.146 102.107 492.268 102.128 492.396 102.16ZM493.864 110V102.256H494.968V110H493.864ZM494.408 100.128C494.184 100.128 493.992 100.048 493.832 99.8879C493.672 99.7279 493.592 99.5359 493.592 99.3119C493.592 99.0879 493.672 98.8959 493.832 98.7359C493.992 98.5652 494.184 98.4799 494.408 98.4799C494.632 98.4799 494.824 98.5652 494.984 98.7359C495.155 98.8959 495.24 99.0879 495.24 99.3119C495.24 99.5359 495.155 99.7279 494.984 99.8879C494.824 100.048 494.632 100.128 494.408 100.128ZM498.422 110H497.318V98.3359H498.422V110ZM501.922 110H500.818V98.3359H501.922V110Z" fill="#1C1C1C"/>
<path d="M653.84 111H645.832V110.033L649.717 106.64C650.282 106.153 650.746 105.724 651.108 105.35C651.47 104.977 651.753 104.638 651.956 104.332C652.171 104.016 652.318 103.705 652.397 103.399C652.488 103.094 652.533 102.76 652.533 102.398C652.533 101.584 652.301 100.939 651.838 100.464C651.374 99.9893 650.74 99.7517 649.937 99.7517C649.1 99.7517 648.422 100.034 647.902 100.6C647.393 101.166 647.127 101.918 647.104 102.856H645.883C645.917 102.008 646.103 101.267 646.443 100.634C646.782 100.001 647.251 99.5086 647.851 99.1579C648.461 98.8073 649.163 98.632 649.954 98.632C650.724 98.632 651.391 98.7904 651.956 99.107C652.533 99.4124 652.98 99.8422 653.297 100.396C653.613 100.939 653.772 101.584 653.772 102.33C653.772 102.76 653.715 103.173 653.602 103.569C653.489 103.954 653.308 104.338 653.059 104.723C652.81 105.107 652.482 105.514 652.075 105.944C651.668 106.374 651.159 106.855 650.548 107.386L647.155 110.355L646.782 109.863H653.84V111ZM663.399 111H655.391V110.033L659.277 106.64C659.842 106.153 660.306 105.724 660.668 105.35C661.03 104.977 661.312 104.638 661.516 104.332C661.731 104.016 661.878 103.705 661.957 103.399C662.048 103.094 662.093 102.76 662.093 102.398C662.093 101.584 661.861 100.939 661.397 100.464C660.934 99.9893 660.3 99.7517 659.497 99.7517C658.66 99.7517 657.982 100.034 657.461 100.6C656.952 101.166 656.687 101.918 656.664 102.856H655.442C655.476 102.008 655.663 101.267 656.002 100.634C656.342 100.001 656.811 99.5086 657.41 99.1579C658.021 98.8073 658.722 98.632 659.514 98.632C660.283 98.632 660.951 98.7904 661.516 99.107C662.093 99.4124 662.54 99.8422 662.856 100.396C663.173 100.939 663.331 101.584 663.331 102.33C663.331 102.76 663.275 103.173 663.162 103.569C663.049 103.954 662.868 104.338 662.619 104.723C662.37 105.107 662.042 105.514 661.635 105.944C661.228 106.374 660.719 106.855 660.108 107.386L656.715 110.355L656.342 109.863H663.399V111ZM666.443 111.186C666.161 111.186 665.912 111.085 665.697 110.881C665.482 110.678 665.374 110.434 665.374 110.152C665.374 109.858 665.482 109.609 665.697 109.405C665.912 109.19 666.161 109.083 666.443 109.083C666.737 109.083 666.986 109.19 667.19 109.405C667.405 109.609 667.512 109.858 667.512 110.152C667.512 110.434 667.405 110.678 667.19 110.881C666.986 111.085 666.737 111.186 666.443 111.186ZM673.15 111.203C672.336 111.203 671.629 111.045 671.03 110.728C670.43 110.4 669.966 109.942 669.638 109.354C669.31 108.766 669.146 108.076 669.146 107.284H670.368C670.368 108.155 670.617 108.84 671.114 109.337C671.623 109.835 672.308 110.084 673.167 110.084C673.778 110.084 674.31 109.959 674.762 109.71C675.214 109.45 675.565 109.094 675.814 108.642C676.063 108.189 676.187 107.663 676.187 107.064C676.187 106.498 676.068 105.989 675.831 105.537C675.593 105.073 675.248 104.706 674.796 104.434C674.355 104.163 673.812 104.027 673.167 104.027C672.613 104.027 672.087 104.146 671.589 104.383C671.103 104.61 670.696 104.904 670.368 105.266L669.401 104.96L670.86 98.8526H676.73V99.9723H671.131L671.912 99.2767L670.673 104.383L670.266 104.332C670.617 103.88 671.064 103.535 671.606 103.298C672.149 103.06 672.726 102.941 673.337 102.941C674.174 102.941 674.898 103.128 675.508 103.501C676.119 103.863 676.589 104.355 676.917 104.977C677.256 105.588 677.426 106.272 677.426 107.03C677.426 107.844 677.245 108.568 676.883 109.202C676.521 109.824 676.017 110.316 675.373 110.678C674.739 111.028 673.999 111.203 673.15 111.203ZM684.891 101.635C684.891 102.212 684.76 102.732 684.5 103.196C684.252 103.648 683.901 104.004 683.448 104.265C683.007 104.513 682.498 104.638 681.922 104.638C681.345 104.638 680.83 104.513 680.378 104.265C679.937 104.004 679.586 103.648 679.326 103.196C679.066 102.732 678.936 102.212 678.936 101.635C678.936 101.047 679.066 100.526 679.326 100.074C679.586 99.6217 679.937 99.2654 680.378 99.0053C680.83 98.7451 681.345 98.6151 681.922 98.6151C682.498 98.6151 683.007 98.7451 683.448 99.0053C683.901 99.2654 684.252 99.6217 684.5 100.074C684.76 100.526 684.891 101.047 684.891 101.635ZM683.873 101.635C683.873 101.035 683.692 100.549 683.33 100.176C682.968 99.7913 682.498 99.599 681.922 99.599C681.345 99.599 680.87 99.7913 680.496 100.176C680.135 100.549 679.954 101.035 679.954 101.635C679.954 102.234 680.135 102.726 680.496 103.111C680.87 103.484 681.345 103.671 681.922 103.671C682.498 103.671 682.968 103.484 683.33 103.111C683.692 102.726 683.873 102.234 683.873 101.635ZM691.049 98.8526L681.82 111H680.598L689.811 98.8526H691.049ZM692.729 108.218C692.729 108.794 692.599 109.315 692.338 109.778C692.09 110.231 691.739 110.587 691.287 110.847C690.845 111.096 690.336 111.22 689.76 111.22C689.183 111.22 688.668 111.096 688.216 110.847C687.775 110.587 687.424 110.231 687.164 109.778C686.904 109.315 686.774 108.794 686.774 108.218C686.774 107.629 686.904 107.109 687.164 106.657C687.424 106.204 687.775 105.848 688.216 105.588C688.668 105.328 689.183 105.198 689.76 105.198C690.336 105.198 690.845 105.328 691.287 105.588C691.739 105.848 692.09 106.204 692.338 106.657C692.599 107.109 692.729 107.629 692.729 108.218ZM691.711 108.218C691.711 107.618 691.53 107.132 691.168 106.758C690.806 106.374 690.336 106.182 689.76 106.182C689.183 106.182 688.708 106.374 688.335 106.758C687.973 107.132 687.792 107.618 687.792 108.218C687.792 108.806 687.973 109.292 688.335 109.677C688.708 110.05 689.183 110.236 689.76 110.236C690.336 110.236 690.806 110.05 691.168 109.677C691.53 109.292 691.711 108.806 691.711 108.218Z" fill="#1C1C1C"/>
<path d="M451.43 145.5C451.43 148.261 449.191 150.5 446.43 150.5C443.668 150.5 441.43 148.261 441.43 145.5C441.43 142.738 443.668 140.5 446.43 140.5C449.191 140.5 451.43 142.738 451.43 145.5Z" fill="#B9A9FF"/>
<path d="M479.995 150.176C478.928 150.176 477.989 149.931 477.179 149.44C476.379 148.939 475.749 148.245 475.291 147.36C474.843 146.475 474.619 145.445 474.619 144.272C474.619 143.099 474.848 142.069 475.307 141.184C475.765 140.288 476.405 139.595 477.227 139.104C478.048 138.603 478.992 138.352 480.059 138.352C480.891 138.352 481.643 138.507 482.315 138.816C482.987 139.125 483.552 139.563 484.011 140.128C484.469 140.683 484.773 141.344 484.923 142.112H483.691C483.445 141.28 482.997 140.629 482.347 140.16C481.696 139.691 480.917 139.456 480.011 139.456C479.179 139.456 478.443 139.659 477.803 140.064C477.173 140.459 476.683 141.019 476.331 141.744C475.989 142.459 475.819 143.301 475.819 144.272C475.819 145.221 475.995 146.059 476.347 146.784C476.699 147.509 477.189 148.075 477.819 148.48C478.448 148.875 479.179 149.072 480.011 149.072C480.917 149.072 481.707 148.843 482.379 148.384C483.051 147.925 483.509 147.317 483.755 146.56H484.987C484.816 147.275 484.491 147.904 484.011 148.448C483.541 148.992 482.96 149.419 482.267 149.728C481.573 150.027 480.816 150.176 479.995 150.176ZM490.787 142.16V143.152H490.179C489.464 143.152 488.894 143.371 488.467 143.808C488.051 144.245 487.843 144.837 487.843 145.584V150H486.739V142.256H487.779L487.875 143.776H487.763C487.87 143.275 488.131 142.869 488.547 142.56C488.963 142.24 489.47 142.08 490.067 142.08C490.184 142.08 490.302 142.085 490.419 142.096C490.536 142.107 490.659 142.128 490.787 142.16ZM498.07 142.256H499.046V150H498.038L497.926 148.416C497.648 148.992 497.254 149.435 496.742 149.744C496.23 150.043 495.648 150.192 494.998 150.192C494.24 150.192 493.595 150.016 493.062 149.664C492.528 149.301 492.118 148.811 491.83 148.192C491.552 147.573 491.414 146.875 491.414 146.096C491.414 145.317 491.558 144.624 491.846 144.016C492.144 143.408 492.566 142.928 493.11 142.576C493.664 142.224 494.31 142.048 495.046 142.048C495.664 142.048 496.24 142.192 496.774 142.48C497.307 142.768 497.707 143.232 497.974 143.872L498.07 142.256ZM497.878 146.128C497.878 145.531 497.771 145.003 497.558 144.544C497.355 144.075 497.056 143.712 496.662 143.456C496.267 143.189 495.787 143.056 495.222 143.056C494.656 143.056 494.171 143.189 493.766 143.456C493.371 143.712 493.067 144.075 492.854 144.544C492.64 145.003 492.534 145.531 492.534 146.128C492.534 146.725 492.635 147.259 492.838 147.728C493.051 148.187 493.355 148.549 493.75 148.816C494.155 149.072 494.635 149.2 495.19 149.2C495.766 149.2 496.251 149.072 496.646 148.816C497.04 148.549 497.344 148.187 497.558 147.728C497.771 147.259 497.878 146.725 497.878 146.128ZM504.232 150.192C503.485 150.192 502.845 150.016 502.312 149.664C501.779 149.312 501.368 148.832 501.08 148.224C500.792 147.605 500.648 146.912 500.648 146.144C500.648 145.365 500.792 144.667 501.08 144.048C501.368 143.429 501.779 142.944 502.312 142.592C502.856 142.229 503.512 142.048 504.28 142.048C504.92 142.048 505.485 142.187 505.976 142.464C506.477 142.741 506.861 143.163 507.128 143.728V138.336H508.232V150H507.272L507.16 148.416C506.883 149.013 506.488 149.461 505.976 149.76C505.464 150.048 504.883 150.192 504.232 150.192ZM504.424 149.184C505 149.184 505.485 149.056 505.88 148.8C506.275 148.533 506.579 148.171 506.792 147.712C507.005 147.243 507.112 146.709 507.112 146.112C507.112 145.515 507.005 144.987 506.792 144.528C506.579 144.069 506.275 143.707 505.88 143.44C505.485 143.173 505 143.04 504.424 143.04C503.869 143.04 503.389 143.173 502.984 143.44C502.589 143.707 502.285 144.069 502.072 144.528C501.869 144.987 501.768 145.515 501.768 146.112C501.768 146.709 501.869 147.243 502.072 147.712C502.285 148.171 502.589 148.533 502.984 148.8C503.389 149.056 503.869 149.184 504.424 149.184ZM511.688 150H510.584V138.336H511.688V150ZM517.284 150.192C516.537 150.192 515.876 150.021 515.3 149.68C514.734 149.339 514.292 148.864 513.972 148.256C513.652 147.648 513.492 146.939 513.492 146.128C513.492 145.328 513.646 144.624 513.956 144.016C514.276 143.397 514.713 142.917 515.268 142.576C515.822 142.224 516.468 142.048 517.204 142.048C517.908 142.048 518.521 142.203 519.044 142.512C519.577 142.821 519.988 143.253 520.276 143.808C520.574 144.352 520.724 144.992 520.724 145.728V146.272H514.1L514.132 145.472H519.62C519.62 144.725 519.396 144.128 518.948 143.68C518.51 143.221 517.929 142.992 517.204 142.992C516.67 142.992 516.201 143.115 515.796 143.36C515.401 143.605 515.097 143.957 514.884 144.416C514.67 144.864 514.564 145.397 514.564 146.016C514.564 147.04 514.798 147.835 515.268 148.4C515.748 148.965 516.425 149.248 517.3 149.248C517.929 149.248 518.446 149.115 518.852 148.848C519.257 148.581 519.529 148.192 519.668 147.68H520.724C520.521 148.491 520.126 149.115 519.54 149.552C518.953 149.979 518.201 150.192 517.284 150.192Z" fill="#1C1C1C"/>
<path d="M651.687 139.837L647.174 144.315L646.394 143.637L650.754 139.328L650.906 139.938H644.324V138.853H651.687V139.837ZM647.361 144.485H646.394V143.637C646.586 143.569 646.795 143.518 647.021 143.484C647.248 143.45 647.479 143.433 647.717 143.433C648.339 143.433 648.904 143.524 649.413 143.705C649.922 143.874 650.369 144.129 650.754 144.468C651.138 144.796 651.432 145.192 651.636 145.656C651.851 146.119 651.958 146.64 651.958 147.217C651.958 148.02 651.777 148.721 651.415 149.32C651.053 149.92 650.55 150.383 649.905 150.711C649.272 151.039 648.548 151.203 647.734 151.203C646.931 151.203 646.23 151.051 645.63 150.745C645.031 150.429 644.561 149.976 644.222 149.388C643.894 148.8 643.73 148.104 643.73 147.301H644.935C644.935 148.172 645.189 148.857 645.698 149.354C646.207 149.852 646.886 150.101 647.734 150.101C648.65 150.101 649.374 149.835 649.905 149.303C650.448 148.772 650.72 148.065 650.72 147.183C650.72 146.346 650.431 145.69 649.855 145.215C649.278 144.728 648.446 144.485 647.361 144.485ZM653.644 144.926C653.644 143.659 653.836 142.557 654.221 141.618C654.617 140.679 655.177 139.944 655.9 139.412C656.636 138.881 657.506 138.615 658.513 138.615C659.52 138.615 660.385 138.881 661.109 139.412C661.833 139.944 662.387 140.679 662.771 141.618C663.167 142.557 663.365 143.659 663.365 144.926C663.365 146.193 663.173 147.296 662.788 148.234C662.404 149.173 661.85 149.908 661.126 150.44C660.402 150.96 659.531 151.22 658.513 151.22C657.495 151.22 656.619 150.96 655.883 150.44C655.16 149.908 654.605 149.173 654.221 148.234C653.836 147.296 653.644 146.193 653.644 144.926ZM654.849 144.926C654.849 145.978 654.99 146.894 655.273 147.675C655.567 148.455 655.985 149.06 656.528 149.49C657.071 149.908 657.733 150.118 658.513 150.118C659.282 150.118 659.938 149.908 660.481 149.49C661.035 149.06 661.454 148.455 661.737 147.675C662.031 146.894 662.178 145.978 662.178 144.926C662.178 143.863 662.031 142.947 661.737 142.178C661.454 141.397 661.035 140.798 660.481 140.379C659.938 139.95 659.282 139.735 658.513 139.735C657.733 139.735 657.071 139.95 656.528 140.379C655.985 140.798 655.567 141.397 655.273 142.178C654.99 142.947 654.849 143.863 654.849 144.926ZM665.736 151.186C665.453 151.186 665.204 151.085 664.989 150.881C664.774 150.678 664.667 150.434 664.667 150.152C664.667 149.858 664.774 149.609 664.989 149.405C665.204 149.19 665.453 149.083 665.736 149.083C666.03 149.083 666.279 149.19 666.482 149.405C666.697 149.609 666.804 149.858 666.804 150.152C666.804 150.434 666.697 150.678 666.482 150.881C666.279 151.085 666.03 151.186 665.736 151.186ZM668.553 147.692C668.553 146.855 668.814 146.136 669.334 145.537C669.854 144.938 670.55 144.553 671.421 144.383L671.438 144.706C670.657 144.502 670.052 144.146 669.622 143.637C669.193 143.117 668.978 142.494 668.978 141.771C668.978 141.149 669.142 140.606 669.47 140.142C669.798 139.667 670.256 139.299 670.844 139.039C671.432 138.768 672.116 138.632 672.897 138.632C673.666 138.632 674.339 138.768 674.916 139.039C675.492 139.299 675.939 139.667 676.256 140.142C676.584 140.606 676.748 141.154 676.748 141.788C676.748 142.511 676.533 143.134 676.103 143.654C675.685 144.163 675.091 144.508 674.322 144.689L674.305 144.4C674.882 144.479 675.385 144.677 675.815 144.994C676.256 145.299 676.595 145.684 676.833 146.148C677.081 146.611 677.206 147.132 677.206 147.709C677.206 148.398 677.019 149.009 676.646 149.541C676.284 150.061 675.781 150.468 675.136 150.762C674.491 151.056 673.739 151.203 672.88 151.203C672.02 151.203 671.262 151.056 670.606 150.762C669.962 150.468 669.458 150.055 669.096 149.524C668.734 148.992 668.553 148.382 668.553 147.692ZM669.758 147.59C669.758 148.087 669.888 148.529 670.148 148.913C670.408 149.286 670.77 149.58 671.234 149.795C671.709 149.999 672.263 150.101 672.897 150.101C673.519 150.101 674.062 149.999 674.525 149.795C674.989 149.58 675.351 149.286 675.611 148.913C675.871 148.54 676.001 148.099 676.001 147.59C676.001 146.843 675.713 146.25 675.136 145.808C674.571 145.356 673.813 145.13 672.863 145.13C671.924 145.13 671.172 145.356 670.606 145.808C670.041 146.25 669.758 146.843 669.758 147.59ZM670.131 141.805C670.131 142.472 670.38 143.015 670.878 143.433C671.387 143.84 672.054 144.044 672.88 144.044C673.705 144.044 674.361 143.846 674.848 143.45C675.345 143.043 675.594 142.506 675.594 141.838C675.594 141.194 675.345 140.679 674.848 140.295C674.361 139.91 673.705 139.718 672.88 139.718C672.054 139.718 671.387 139.91 670.878 140.295C670.38 140.668 670.131 141.171 670.131 141.805ZM684.846 141.635C684.846 142.212 684.715 142.732 684.455 143.196C684.207 143.648 683.856 144.004 683.403 144.265C682.962 144.513 682.453 144.638 681.877 144.638C681.3 144.638 680.785 144.513 680.333 144.265C679.892 144.004 679.541 143.648 679.281 143.196C679.021 142.732 678.891 142.212 678.891 141.635C678.891 141.047 679.021 140.526 679.281 140.074C679.541 139.622 679.892 139.265 680.333 139.005C680.785 138.745 681.3 138.615 681.877 138.615C682.453 138.615 682.962 138.745 683.403 139.005C683.856 139.265 684.207 139.622 684.455 140.074C684.715 140.526 684.846 141.047 684.846 141.635ZM683.828 141.635C683.828 141.035 683.647 140.549 683.285 140.176C682.923 139.791 682.453 139.599 681.877 139.599C681.3 139.599 680.825 139.791 680.451 140.176C680.09 140.549 679.909 141.035 679.909 141.635C679.909 142.234 680.09 142.726 680.451 143.111C680.825 143.484 681.3 143.671 681.877 143.671C682.453 143.671 682.923 143.484 683.285 143.111C683.647 142.726 683.828 142.234 683.828 141.635ZM691.004 138.853L681.775 151H680.553L689.766 138.853H691.004ZM692.684 148.218C692.684 148.794 692.554 149.315 692.293 149.778C692.045 150.231 691.694 150.587 691.242 150.847C690.8 151.096 690.291 151.22 689.715 151.22C689.138 151.22 688.623 151.096 688.171 150.847C687.73 150.587 687.379 150.231 687.119 149.778C686.859 149.315 686.729 148.794 686.729 148.218C686.729 147.629 686.859 147.109 687.119 146.657C687.379 146.204 687.73 145.848 688.171 145.588C688.623 145.328 689.138 145.198 689.715 145.198C690.291 145.198 690.8 145.328 691.242 145.588C691.694 145.848 692.045 146.204 692.293 146.657C692.554 147.109 692.684 147.629 692.684 148.218ZM691.666 148.218C691.666 147.618 691.485 147.132 691.123 146.758C690.761 146.374 690.291 146.182 689.715 146.182C689.138 146.182 688.663 146.374 688.29 146.758C687.928 147.132 687.747 147.618 687.747 148.218C687.747 148.806 687.928 149.292 688.29 149.677C688.663 150.05 689.138 150.236 689.715 150.236C690.291 150.236 690.761 150.05 691.123 149.677C691.485 149.292 691.666 148.806 691.666 148.218Z" fill="#1C1C1C"/>
<path d="M451.43 185.5C451.43 188.261 449.191 190.5 446.43 190.5C443.668 190.5 441.43 188.261 441.43 185.5C441.43 182.738 443.668 180.5 446.43 180.5C449.191 180.5 451.43 182.738 451.43 185.5Z" fill="#FFCE46"/>
<path d="M475.323 190H474.155L478.363 178.544H479.787L484.043 190H482.843L481.723 186.96H476.443L475.323 190ZM478.923 180.16L476.795 185.952H481.355L479.211 180.16C479.189 180.075 479.163 179.989 479.131 179.904C479.099 179.819 479.077 179.749 479.067 179.696C479.056 179.749 479.035 179.824 479.003 179.92C478.981 180.005 478.955 180.085 478.923 180.16ZM486.499 190H485.395V182.256H486.355L486.515 183.6C486.771 183.109 487.134 182.731 487.603 182.464C488.083 182.187 488.606 182.048 489.171 182.048C490.238 182.048 491.006 182.341 491.475 182.928C491.944 183.515 492.179 184.293 492.179 185.264V190H491.075V185.504C491.075 184.597 490.883 183.963 490.499 183.6C490.126 183.237 489.619 183.056 488.979 183.056C488.19 183.056 487.576 183.323 487.139 183.856C486.712 184.379 486.499 185.077 486.499 185.952V190ZM493.516 182.256H497.708V183.184H493.516V182.256ZM496.156 190H495.068V179.808H496.156V190ZM500.297 190H499.193V178.336H500.297V190ZM505.893 190.192C505.146 190.192 504.485 190.021 503.909 189.68C503.344 189.339 502.901 188.864 502.581 188.256C502.261 187.648 502.101 186.939 502.101 186.128C502.101 185.328 502.256 184.624 502.565 184.016C502.885 183.397 503.322 182.917 503.877 182.576C504.432 182.224 505.077 182.048 505.813 182.048C506.517 182.048 507.13 182.203 507.653 182.512C508.186 182.821 508.597 183.253 508.885 183.808C509.184 184.352 509.333 184.992 509.333 185.728V186.272H502.709L502.741 185.472H508.229C508.229 184.725 508.005 184.128 507.557 183.68C507.12 183.221 506.538 182.992 505.813 182.992C505.28 182.992 504.81 183.115 504.405 183.36C504.01 183.605 503.706 183.957 503.493 184.416C503.28 184.864 503.173 185.397 503.173 186.016C503.173 187.04 503.408 187.835 503.877 188.4C504.357 188.965 505.034 189.248 505.909 189.248C506.538 189.248 507.056 189.115 507.461 188.848C507.866 188.581 508.138 188.192 508.277 187.68H509.333C509.13 188.491 508.736 189.115 508.149 189.552C507.562 189.979 506.81 190.192 505.893 190.192ZM515.146 182.16V183.152H514.538C513.824 183.152 513.253 183.371 512.826 183.808C512.41 184.245 512.202 184.837 512.202 185.584V190H511.098V182.256H512.138L512.234 183.776H512.122C512.229 183.275 512.49 182.869 512.906 182.56C513.322 182.24 513.829 182.08 514.426 182.08C514.544 182.08 514.661 182.085 514.778 182.096C514.896 182.107 515.018 182.128 515.146 182.16Z" fill="#1C1C1C"/>
<path d="M659.934 187.692C659.934 186.855 660.194 186.136 660.714 185.537C661.234 184.938 661.93 184.553 662.801 184.383L662.818 184.706C662.037 184.502 661.432 184.146 661.002 183.637C660.573 183.117 660.358 182.494 660.358 181.771C660.358 181.149 660.522 180.606 660.85 180.142C661.178 179.667 661.636 179.299 662.224 179.039C662.812 178.768 663.496 178.632 664.277 178.632C665.046 178.632 665.719 178.768 666.296 179.039C666.872 179.299 667.319 179.667 667.636 180.142C667.964 180.606 668.128 181.154 668.128 181.788C668.128 182.511 667.913 183.134 667.483 183.654C667.065 184.163 666.471 184.508 665.702 184.689L665.685 184.4C666.262 184.479 666.765 184.677 667.195 184.994C667.636 185.299 667.975 185.684 668.213 186.148C668.462 186.611 668.586 187.132 668.586 187.709C668.586 188.398 668.399 189.009 668.026 189.541C667.664 190.061 667.161 190.468 666.516 190.762C665.872 191.056 665.119 191.203 664.26 191.203C663.4 191.203 662.642 191.056 661.986 190.762C661.342 190.468 660.838 190.055 660.476 189.524C660.115 188.992 659.934 188.382 659.934 187.692ZM661.138 187.59C661.138 188.087 661.268 188.529 661.528 188.913C661.788 189.286 662.15 189.58 662.614 189.795C663.089 189.999 663.643 190.101 664.277 190.101C664.899 190.101 665.442 189.999 665.905 189.795C666.369 189.58 666.731 189.286 666.991 188.913C667.251 188.54 667.381 188.099 667.381 187.59C667.381 186.843 667.093 186.25 666.516 185.808C665.951 185.356 665.193 185.13 664.243 185.13C663.304 185.13 662.552 185.356 661.986 185.808C661.421 186.25 661.138 186.843 661.138 187.59ZM661.511 181.805C661.511 182.472 661.76 183.015 662.258 183.433C662.767 183.84 663.434 184.044 664.26 184.044C665.085 184.044 665.741 183.846 666.228 183.45C666.725 183.043 666.974 182.506 666.974 181.838C666.974 181.194 666.725 180.679 666.228 180.295C665.741 179.91 665.085 179.718 664.26 179.718C663.434 179.718 662.767 179.91 662.258 180.295C661.76 180.668 661.511 181.171 661.511 181.805ZM671.414 191.186C671.131 191.186 670.882 191.085 670.667 190.881C670.452 190.678 670.345 190.434 670.345 190.152C670.345 189.858 670.452 189.609 670.667 189.405C670.882 189.19 671.131 189.083 671.414 189.083C671.708 189.083 671.957 189.19 672.16 189.405C672.375 189.609 672.483 189.858 672.483 190.152C672.483 190.434 672.375 190.678 672.16 190.881C671.957 191.085 671.708 191.186 671.414 191.186ZM675.609 179.955H673.132V178.853H676.779V191H675.609V179.955ZM684.974 181.635C684.974 182.212 684.843 182.732 684.583 183.196C684.334 183.648 683.984 184.004 683.531 184.265C683.09 184.513 682.581 184.638 682.005 184.638C681.428 184.638 680.913 184.513 680.461 184.265C680.02 184.004 679.669 183.648 679.409 183.196C679.149 182.732 679.019 182.212 679.019 181.635C679.019 181.047 679.149 180.526 679.409 180.074C679.669 179.622 680.02 179.265 680.461 179.005C680.913 178.745 681.428 178.615 682.005 178.615C682.581 178.615 683.09 178.745 683.531 179.005C683.984 179.265 684.334 179.622 684.583 180.074C684.843 180.526 684.974 181.047 684.974 181.635ZM683.956 181.635C683.956 181.035 683.775 180.549 683.413 180.176C683.051 179.791 682.581 179.599 682.005 179.599C681.428 179.599 680.953 179.791 680.579 180.176C680.218 180.549 680.037 181.035 680.037 181.635C680.037 182.234 680.218 182.726 680.579 183.111C680.953 183.484 681.428 183.671 682.005 183.671C682.581 183.671 683.051 183.484 683.413 183.111C683.775 182.726 683.956 182.234 683.956 181.635ZM691.132 178.853L681.903 191H680.681L689.894 178.853H691.132ZM692.812 188.218C692.812 188.794 692.682 189.315 692.421 189.778C692.173 190.231 691.822 190.587 691.37 190.847C690.928 191.096 690.419 191.22 689.843 191.22C689.266 191.22 688.751 191.096 688.299 190.847C687.858 190.587 687.507 190.231 687.247 189.778C686.987 189.315 686.857 188.794 686.857 188.218C686.857 187.629 686.987 187.109 687.247 186.657C687.507 186.204 687.858 185.848 688.299 185.588C688.751 185.328 689.266 185.198 689.843 185.198C690.419 185.198 690.928 185.328 691.37 185.588C691.822 185.848 692.173 186.204 692.421 186.657C692.682 187.109 692.812 187.629 692.812 188.218ZM691.794 188.218C691.794 187.618 691.613 187.132 691.251 186.758C690.889 186.374 690.419 186.182 689.843 186.182C689.266 186.182 688.791 186.374 688.418 186.758C688.056 187.132 687.875 187.618 687.875 188.218C687.875 188.806 688.056 189.292 688.418 189.677C688.791 190.05 689.266 190.236 689.843 190.236C690.419 190.236 690.889 190.05 691.251 189.677C691.613 189.292 691.794 188.806 691.794 188.218Z" fill="#1C1C1C"/>
</svg>
