<svg xmlns="http://www.w3.org/2000/svg" width="24" height="24" viewBox="0 0 24 24" fill="none">
  <path d="M9.6998 17.3C9.51647 17.1167 9.4248 16.8833 9.4248 16.6C9.4248 16.3167 9.51647 16.0833 9.6998 15.9L13.5998 12L9.6998 8.09999C9.51647 7.91665 9.4248 7.68332 9.4248 7.39999C9.4248 7.11665 9.51647 6.88332 9.6998 6.69999C9.88314 6.51665 10.1165 6.42499 10.3998 6.42499C10.6831 6.42499 10.9165 6.51665 11.0998 6.69999L15.6998 11.3C15.7998 11.4 15.8708 11.5083 15.9128 11.625C15.9541 11.7417 15.9748 11.8667 15.9748 12C15.9748 12.1333 15.9541 12.2583 15.9128 12.375C15.8708 12.4917 15.7998 12.6 15.6998 12.7L11.0998 17.3C10.9165 17.4833 10.6831 17.575 10.3998 17.575C10.1165 17.575 9.88314 17.4833 9.6998 17.3Z" fill="#66696D"/>
</svg>