<svg xmlns="http://www.w3.org/2000/svg" width="17" height="16" viewBox="0 0 17 16" fill="none">
  <path d="M14.9125 3.09564C14.8355 2.91784 14.708 2.76658 14.5458 2.66068C14.3835 2.55477 14.1937 2.49891 14 2.50002H2.99998C2.80644 2.5004 2.61717 2.55694 2.45512 2.66277C2.29308 2.76861 2.16523 2.91919 2.08709 3.09626C2.00894 3.27332 1.98386 3.46926 2.01488 3.6603C2.04591 3.85134 2.1317 4.02928 2.26186 4.17252L2.26686 4.17814L6.49998 8.69814V13.5C6.49994 13.681 6.54902 13.8586 6.64198 14.0139C6.73494 14.1692 6.86831 14.2963 7.02785 14.3818C7.18739 14.4672 7.36714 14.5078 7.54792 14.4991C7.72869 14.4904 7.90373 14.4329 8.05436 14.3325L10.0544 12.9988C10.1915 12.9074 10.3039 12.7837 10.3816 12.6384C10.4594 12.4932 10.5 12.331 10.5 12.1663V8.69814L14.7337 4.17814L14.7387 4.17252C14.8703 4.02993 14.9569 3.85176 14.9878 3.66025C15.0187 3.46873 14.9925 3.27236 14.9125 3.09564ZM9.77123 8.01752C9.59754 8.20163 9.50054 8.44502 9.49998 8.69814V12.1663L7.49998 13.5V8.69814C7.50056 8.44411 7.40396 8.19949 7.22998 8.01439L2.99998 3.50002H14L9.77123 8.01752Z" fill="#66696D"/>
</svg>