<svg width="42" height="42" viewBox="0 0 42 42" fill="none" xmlns="http://www.w3.org/2000/svg">
<path d="M0 22C0 10.9543 8.95431 2 20 2C31.0457 2 40 10.9543 40 22C40 33.0457 31.0457 42 20 42C8.95431 42 0 33.0457 0 22Z" fill="white"/>
<path d="M26 8C26 3.58172 29.5817 0 34 0C38.4183 0 42 3.58172 42 8C42 12.4183 38.4183 16 34 16C29.5817 16 26 12.4183 26 8Z" fill="#D31510"/>
<path d="M31.049 12V10.858L34.0788 7.88778C34.3686 7.59517 34.6101 7.33523 34.8033 7.10795C34.9964 6.88068 35.1413 6.66051 35.2379 6.44744C35.3345 6.23437 35.3828 6.0071 35.3828 5.76562C35.3828 5.49006 35.3203 5.25426 35.1953 5.05824C35.0703 4.85938 34.8984 4.70597 34.6797 4.59801C34.4609 4.49006 34.2124 4.43608 33.9339 4.43608C33.647 4.43608 33.3956 4.49574 33.1797 4.61506C32.9638 4.73153 32.7962 4.89773 32.6768 5.11364C32.5604 5.32955 32.5021 5.58665 32.5021 5.88494H30.9979C30.9979 5.33097 31.1243 4.84943 31.3771 4.44034C31.63 4.03125 31.978 3.71449 32.4212 3.49006C32.8672 3.26562 33.3786 3.15341 33.9553 3.15341C34.5405 3.15341 35.0547 3.26278 35.4979 3.48153C35.9411 3.70028 36.2848 4 36.5291 4.38068C36.7763 4.76136 36.8999 5.19602 36.8999 5.68466C36.8999 6.01136 36.8374 6.33239 36.7124 6.64773C36.5874 6.96307 36.3672 7.3125 36.0518 7.69602C35.7393 8.07955 35.3004 8.54403 34.7351 9.08949L33.2308 10.6193V10.679H37.032V12H31.049Z" fill="white"/>
<path d="M19.6115 16.3636V28H17.4865L12.424 20.6761H12.3388V28H9.87855V16.3636H12.0376L17.0604 23.6818H17.1626V16.3636H19.6115ZM21.6442 28V16.3636H26.2351C27.1139 16.3636 27.8639 16.5208 28.4851 16.8352C29.1101 17.1458 29.5855 17.5871 29.9112 18.1591C30.2408 18.7273 30.4055 19.3958 30.4055 20.1648C30.4055 20.9375 30.2389 21.6023 29.9055 22.1591C29.5722 22.7121 29.0893 23.1364 28.4567 23.4318C27.8279 23.7273 27.0665 23.875 26.1726 23.875H23.0987V21.8977H25.7749C26.2446 21.8977 26.6347 21.8333 26.9453 21.7045C27.2559 21.5758 27.487 21.3826 27.6385 21.125C27.7938 20.8674 27.8714 20.5473 27.8714 20.1648C27.8714 19.7784 27.7938 19.4527 27.6385 19.1875C27.487 18.9223 27.254 18.7216 26.9396 18.5852C26.629 18.4451 26.237 18.375 25.7635 18.375H24.1044V28H21.6442ZM27.9283 22.7045L30.8203 28H28.1044L25.2749 22.7045H27.9283Z" fill="#111827"/>
</svg>
