<svg xmlns="http://www.w3.org/2000/svg" width="16" height="16" viewBox="0 0 16 16" fill="none">
  <path d="M15.0003 3.5V7.5C15.0004 7.59895 14.9711 7.69569 14.9161 7.77799C14.8612 7.86029 14.7831 7.92444 14.6917 7.96231C14.6003 8.00019 14.4997 8.01009 14.4026 7.99076C14.3056 7.97144 14.2165 7.92376 14.1465 7.85375L12.5003 6.20688L8.85403 9.85375C8.80759 9.90024 8.75245 9.93712 8.69175 9.96228C8.63105 9.98744 8.56599 10.0004 8.50028 10.0004C8.43457 10.0004 8.36951 9.98744 8.30881 9.96228C8.24811 9.93712 8.19296 9.90024 8.14653 9.85375L6.00028 7.70687L1.85403 11.8538C1.76021 11.9476 1.63296 12.0003 1.50028 12.0003C1.3676 12.0003 1.24035 11.9476 1.14653 11.8538C1.05271 11.7599 1 11.6327 1 11.5C1 11.3673 1.05271 11.2401 1.14653 11.1462L5.64653 6.64625C5.69296 6.59976 5.74811 6.56288 5.80881 6.53772C5.86951 6.51256 5.93457 6.49961 6.00028 6.49961C6.06599 6.49961 6.13105 6.51256 6.19175 6.53772C6.25245 6.56288 6.30759 6.59976 6.35403 6.64625L8.50028 8.79313L11.7934 5.5L10.1465 3.85375C10.0765 3.78382 10.0288 3.6947 10.0095 3.59765C9.99019 3.50061 10.0001 3.40002 10.038 3.30861C10.0758 3.21719 10.14 3.13908 10.2223 3.08414C10.3046 3.0292 10.4013 2.99992 10.5003 3H14.5003C14.6329 3 14.7601 3.05268 14.8538 3.14645C14.9476 3.24022 15.0003 3.36739 15.0003 3.5Z" fill="#229626"/>
</svg>