<svg xmlns="http://www.w3.org/2000/svg" width="16" height="16" viewBox="0 0 16 16" fill="none">
  <path d="M12.854 12.1463C12.9005 12.1927 12.9373 12.2479 12.9625 12.3086C12.9876 12.3693 13.0006 12.4343 13.0006 12.5C13.0006 12.5657 12.9876 12.6308 12.9625 12.6915C12.9373 12.7521 12.9005 12.8073 12.854 12.8538C12.8076 12.9002 12.7524 12.9371 12.6917 12.9622C12.631 12.9873 12.566 13.0003 12.5003 13.0003C12.4346 13.0003 12.3695 12.9873 12.3088 12.9622C12.2481 12.9371 12.193 12.9002 12.1465 12.8538L8.00028 8.70688L3.85403 12.8538C3.76021 12.9476 3.63296 13.0003 3.50028 13.0003C3.3676 13.0003 3.24035 12.9476 3.14653 12.8538C3.05271 12.7599 3 12.6327 3 12.5C3 12.3673 3.05271 12.2401 3.14653 12.1463L7.2934 8L3.14653 3.85375C3.05271 3.75993 3 3.63269 3 3.5C3 3.36732 3.05271 3.24007 3.14653 3.14625C3.24035 3.05243 3.3676 2.99973 3.50028 2.99973C3.63296 2.99973 3.76021 3.05243 3.85403 3.14625L8.00028 7.29313L12.1465 3.14625C12.2403 3.05243 12.3676 2.99973 12.5003 2.99973C12.633 2.99973 12.7602 3.05243 12.854 3.14625C12.9478 3.24007 13.0006 3.36732 13.0006 3.5C13.0006 3.63269 12.9478 3.75993 12.854 3.85375L8.70715 8L12.854 12.1463Z" fill="#66696D"/>
</svg>